<svg xmlns="http://www.w3.org/2000/svg" width="140" height="40" fill="none"><g clip-path="url(#a)"><mask id="b" width="150" height="40" x="-5" y="0" maskUnits="userSpaceOnUse" style="mask-type:luminance"><path fill="#fff" d="M144.967 0H-5v40h149.967V0Z"/></mask><g mask="url(#b)"><path fill="#C2222A" d="M10.764 19.247c3.844 0 4.194-.433 4.194-1.169 0-.823-.32-1.126-3.407-1.126H9.075c-2.36 0-2.854.39-2.854 1.3 0 .714.756.995 2.94.995h1.603ZM.802 17.796c0-3.012 2.795-3.185 8.214-3.185 3.058 0 4.748.064 5.825.888v-.974c0-1.084-.438-1.473-2.622-1.473H8.928c-1.63 0-2.097.108-2.155.888H1.356c0-2.991 1.98-3.488 6.698-3.488h6.495c3.845 0 5.883 1.364 5.883 3.964v7.257h-5.3v-1.257c-1.544 1.192-2.128 1.43-4.923 1.43H6.393C2.985 21.869.8 21.307.8 18.706v-.91h.002Z"/></g><mask id="c" width="150" height="40" x="-5" y="0" maskUnits="userSpaceOnUse" style="mask-type:luminance"><path fill="#fff" d="M144.967 0H-5v40h149.967V0Z"/></mask><g mask="url(#c)"><path fill="#C2222A" d="M29.929 5.988h-5.592v15.685h5.592V5.988Z"/></g><mask id="d" width="150" height="40" x="-5" y="0" maskUnits="userSpaceOnUse" style="mask-type:luminance"><path fill="#fff" d="M144.967 0H-5v40h149.967V0Z"/></mask><g mask="url(#d)"><path fill="#C2222A" d="M34.414 21.673h5.591V10.624h-5.591v11.05Zm0-12.435h5.591v-3.25h-5.591v3.25Z"/></g><mask id="e" width="150" height="40" x="-5" y="0" maskUnits="userSpaceOnUse" style="mask-type:luminance"><path fill="#fff" d="M144.967 0H-5v40h149.967V0Z"/></mask><g mask="url(#e)"><path fill="#C2222A" d="M49.763 16.691c0 1.67 1.166 2.037 3.38 2.037h2.942c2.679 0 2.94-.694 2.94-1.928V15.5c0-1.236-.261-1.929-2.94-1.929h-2.942c-2.214 0-3.38.368-3.38 2.036v1.083Zm-5.592-6.065h5.42v1.646h.057c.7-.975 1.98-1.82 5.243-1.82h1.602c7.076 0 7.95 1.886 7.95 4.702v1.993c0 2.816-.874 4.702-7.95 4.702h-1.137c-3.174 0-4.281-.325-5.533-2.08h-.06v5.763h-5.59V10.626h-.002Z"/></g><mask id="f" width="150" height="40" x="-5" y="0" maskUnits="userSpaceOnUse" style="mask-type:luminance"><path fill="#fff" d="M144.967 0H-5v40h149.967V0Z"/></mask><g mask="url(#f)"><path fill="#C2222A" d="M73.045 5.988h-5.592v15.685h5.592V5.988Z"/></g><mask id="g" width="150" height="40" x="-5" y="0" maskUnits="userSpaceOnUse" style="mask-type:luminance"><path fill="#fff" d="M144.967 0H-5v40h149.967V0Z"/></mask><g mask="url(#g)"><path fill="#C2222A" d="M85.852 19.247c3.845 0 4.196-.433 4.196-1.169 0-.823-.321-1.126-3.411-1.126h-2.474c-2.36 0-2.855.39-2.855 1.3 0 .714.756.995 2.942.995h1.602Zm-9.962-1.451c0-3.012 2.797-3.185 8.215-3.185 3.058 0 4.748.064 5.825.888v-.974c0-1.084-.438-1.473-2.623-1.473h-3.29c-1.63 0-2.097.108-2.156.888h-5.416c0-2.991 1.98-3.488 6.698-3.488h6.495c3.844 0 5.884 1.364 5.884 3.964v7.257H90.22v-1.257c-1.543 1.192-2.126 1.43-4.923 1.43h-3.814c-3.408.022-5.593-.54-5.593-3.141v-.91Z"/></g><mask id="h" width="150" height="40" x="-5" y="0" maskUnits="userSpaceOnUse" style="mask-type:luminance"><path fill="#fff" d="M144.967 0H-5v40h149.967V0Z"/></mask><g mask="url(#h)"><path fill="#C2222A" d="M104.317 18.23c0 .606.292 1.017 3.466 1.017h1.982c2.651 0 3.321-.15 3.321-.822 0-.65-.438-.91-2.419-.91h-5.24c-5.214-.023-6.759-.866-6.759-3.9 0-2.752 2.972-3.163 6.817-3.163h3.904c7.311 0 8.591.759 8.65 3.36h-5.593c-.289-.652-.816-.76-4.167-.76-3.231 0-3.843.065-3.843.823 0 .477.438.65 3.348.65h3.876c6.698 0 7.194 1.668 7.194 3.64 0 2.925-1.573 3.683-7.95 3.683h-5.302c-5.156 0-7.048-.89-7.048-3.618h5.763Z"/></g><mask id="i" width="150" height="40" x="-5" y="0" maskUnits="userSpaceOnUse" style="mask-type:luminance"><path fill="#fff" d="M144.967 0H-5v40h149.967V0Z"/></mask><g mask="url(#i)"><path fill="#C2222A" d="M123.484 13.616h-2.796v-2.991h2.796v-2.6h5.592v2.6h8.678v2.99h-8.678v4.247c0 .822.816.997 2.154.997 1.808 0 2.302-.305 2.302-1.323V16.8h4.892v1.344c0 2.101-1.864 3.705-6.319 3.705h-2.213c-3.438 0-6.408-.802-6.408-3.857v-4.375Z"/></g><mask id="j" width="150" height="40" x="-5" y="0" maskUnits="userSpaceOnUse" style="mask-type:luminance"><path fill="#fff" d="M144.967 0H-5v40h149.967V0Z"/></mask><g mask="url(#j)"><path fill="#C2222A" d="M137.438 7.606h.428c.328 0 .404-.136.404-.294 0-.214-.225-.233-.397-.233h-.435v.527Zm1.039.905h-.255l-.467-.712h-.316v.712h-.229V6.883h.709c.296 0 .582.083.582.433 0 .32-.218.454-.507.462l.483.734Zm-1.949-.822c0 .683.544 1.233 1.224 1.233.676 0 1.217-.55 1.217-1.233a1.22 1.22 0 0 0-2.441 0Zm2.678.007c0 .81-.652 1.455-1.455 1.455a1.453 1.453 0 1 1 0-2.908c.804 0 1.455.651 1.455 1.453Z"/></g><mask id="k" width="150" height="40" x="-5" y="0" maskUnits="userSpaceOnUse" style="mask-type:luminance"><path fill="#fff" d="M144.967 0H-5v40h149.967V0Z"/></mask><g mask="url(#k)"><path fill="#696A6C" d="M47.087 28.782h.87l2.354 5.388h-.992l-.545-1.291h-2.528l-.552 1.291h-.963l2.356-5.388Zm1.344 3.263-.926-2.138-.917 2.138h1.843Z"/></g><mask id="l" width="150" height="40" x="-5" y="0" maskUnits="userSpaceOnUse" style="mask-type:luminance"><path fill="#fff" d="M144.967 0H-5v40h149.967V0Z"/></mask><g mask="url(#l)"><path fill="#696A6C" d="M51.562 28.82h.939v4.494h2.812v.857h-3.752V28.82Z"/></g><mask id="m" width="150" height="40" x="-5" y="0" maskUnits="userSpaceOnUse" style="mask-type:luminance"><path fill="#fff" d="M144.967 0H-5v40h149.967V0Z"/></mask><g mask="url(#m)"><path fill="#696A6C" d="M56.414 31.901V28.82h.94v3.042c0 .994.512 1.521 1.354 1.521.833 0 1.344-.496 1.344-1.482v-3.08h.94v3.033c0 1.599-.9 2.4-2.3 2.4-1.39 0-2.278-.802-2.278-2.353Z"/></g><mask id="n" width="150" height="40" x="-5" y="0" maskUnits="userSpaceOnUse" style="mask-type:luminance"><path fill="#fff" d="M144.967 0H-5v40h149.967V0Z"/></mask><g mask="url(#n)"><path fill="#696A6C" d="M62.724 28.82h1l1.628 2.531 1.628-2.531h1.002v5.35h-.94v-3.836l-1.69 2.522h-.03l-1.674-2.507v3.822h-.924V28.82Z"/></g><mask id="o" width="150" height="40" x="-5" y="0" maskUnits="userSpaceOnUse" style="mask-type:luminance"><path fill="#fff" d="M144.967 0H-5v40h149.967V0Z"/></mask><g mask="url(#o)"><path fill="#696A6C" d="M70.744 28.82h-.94v5.351h.94V28.82Z"/></g><mask id="p" width="150" height="40" x="-5" y="0" maskUnits="userSpaceOnUse" style="mask-type:luminance"><path fill="#fff" d="M144.967 0H-5v40h149.967V0Z"/></mask><g mask="url(#p)"><path fill="#696A6C" d="M72.547 28.82h.873l2.866 3.7v-3.7h.924v5.35h-.787l-2.95-3.806v3.807h-.926V28.82Z"/></g><mask id="q" width="150" height="40" x="-5" y="0" maskUnits="userSpaceOnUse" style="mask-type:luminance"><path fill="#fff" d="M144.967 0H-5v40h149.967V0Z"/></mask><g mask="url(#q)"><path fill="#696A6C" d="M79.968 28.82h-.94v5.351h.94V28.82Z"/></g><mask id="r" width="150" height="40" x="-5" y="0" maskUnits="userSpaceOnUse" style="mask-type:luminance"><path fill="#fff" d="M144.967 0H-5v40h149.967V0Z"/></mask><g mask="url(#r)"><path fill="#696A6C" d="M81.719 31.901V28.82h.94v3.042c0 .994.512 1.521 1.352 1.521.834 0 1.344-.496 1.344-1.482v-3.08h.943v3.033c0 1.599-.903 2.4-2.301 2.4-1.39 0-2.278-.802-2.278-2.353Z"/></g><mask id="s" width="150" height="40" x="-5" y="0" maskUnits="userSpaceOnUse" style="mask-type:luminance"><path fill="#fff" d="M144.967 0H-5v40h149.967V0Z"/></mask><g mask="url(#s)"><path fill="#696A6C" d="M88.026 28.82h1.003l1.628 2.531 1.628-2.531h1v5.35h-.94v-3.836l-1.688 2.522h-.03l-1.675-2.507v3.822h-.926V28.82Z"/></g><mask id="t" width="150" height="40" x="-5" y="0" maskUnits="userSpaceOnUse" style="mask-type:luminance"><path fill="#fff" d="M144.967 0H-5v40h149.967V0Z"/></mask><g mask="url(#t)"><path fill="#696A6C" d="m99.607 33.392.566-.674c.513.444 1.032.695 1.691.695.58 0 .947-.274.947-.672v-.015c0-.382-.213-.588-1.207-.817-1.139-.276-1.78-.612-1.78-1.599v-.014c0-.917.763-1.552 1.826-1.552a2.97 2.97 0 0 1 1.941.673l-.506.71c-.48-.358-.961-.55-1.452-.55-.55 0-.869.283-.869.634v.015c0 .413.243.597 1.275.841 1.13.275 1.712.681 1.712 1.568v.015c0 1.002-.786 1.596-1.91 1.596a3.305 3.305 0 0 1-2.234-.854Z"/></g><mask id="u" width="150" height="40" x="-5" y="0" maskUnits="userSpaceOnUse" style="mask-type:luminance"><path fill="#fff" d="M144.967 0H-5v40h149.967V0Z"/></mask><g mask="url(#u)"><path fill="#696A6C" d="m106.708 32.06-2.125-3.24h1.116l1.491 2.363 1.512-2.363h1.078l-2.124 3.218v2.133h-.948v-2.11Z"/></g><mask id="v" width="150" height="40" x="-5" y="0" maskUnits="userSpaceOnUse" style="mask-type:luminance"><path fill="#fff" d="M144.967 0H-5v40h149.967V0Z"/></mask><g mask="url(#v)"><path fill="#696A6C" d="m110.415 33.392.566-.674c.512.444 1.031.695 1.689.695.58 0 .946-.274.946-.672v-.015c0-.382-.211-.588-1.204-.817-1.14-.276-1.781-.612-1.781-1.599v-.014c0-.917.763-1.552 1.824-1.552.78 0 1.399.238 1.943.673l-.506.71c-.481-.358-.961-.55-1.45-.55-.55 0-.873.283-.873.634v.015c0 .413.245.597 1.277.841 1.129.275 1.711.681 1.711 1.568v.015c0 1.002-.787 1.596-1.911 1.596a3.297 3.297 0 0 1-2.231-.854Z"/></g><mask id="w" width="150" height="40" x="-5" y="0" maskUnits="userSpaceOnUse" style="mask-type:luminance"><path fill="#fff" d="M144.967 0H-5v40h149.967V0Z"/></mask><g mask="url(#w)"><path fill="#696A6C" d="M117.32 29.692h-1.695v-.872h4.338v.872h-1.696v4.479h-.947v-4.48Z"/></g><mask id="x" width="150" height="40" x="-5" y="0" maskUnits="userSpaceOnUse" style="mask-type:luminance"><path fill="#fff" d="M144.967 0H-5v40h149.967V0Z"/></mask><g mask="url(#x)"><path fill="#696A6C" d="M121.248 28.82h3.968v.842h-3.027v1.39h2.685v.84h-2.685v1.438h3.064v.84h-4.005v-5.35Z"/></g><mask id="y" width="150" height="40" x="-5" y="0" maskUnits="userSpaceOnUse" style="mask-type:luminance"><path fill="#fff" d="M144.967 0H-5v40h149.967V0Z"/></mask><g mask="url(#y)"><path fill="#696A6C" d="M126.778 28.82h1.002l1.627 2.531 1.63-2.531h.999v5.35h-.938v-3.836l-1.691 2.522h-.027l-1.676-2.507v3.822h-.926V28.82Z"/></g><mask id="z" width="150" height="40" x="-5" y="0" maskUnits="userSpaceOnUse" style="mask-type:luminance"><path fill="#fff" d="M144.967 0H-5v40h149.967V0Z"/></mask><g mask="url(#z)"><path fill="#696A6C" d="m133.437 33.392.565-.674c.512.444 1.032.695 1.689.695.582 0 .947-.274.947-.672v-.015c0-.382-.212-.588-1.206-.817-1.139-.276-1.78-.612-1.78-1.599v-.014c0-.917.762-1.552 1.824-1.552.781 0 1.399.238 1.943.673l-.505.71c-.483-.358-.963-.55-1.454-.55-.55 0-.87.283-.87.634v.015c0 .413.246.597 1.276.841 1.132.275 1.712.681 1.712 1.568v.015c0 1.002-.786 1.596-1.91 1.596-.818 0-1.59-.283-2.231-.854Z"/></g></g><defs><clipPath id="a"><path fill="#fff" d="M0 0h140v40H0z"/></clipPath></defs></svg>