<svg xmlns="http://www.w3.org/2000/svg" width="157" height="40" fill="none"><g clip-path="url(#a)"><path fill="#F68712" d="M25.475 15.307H15.313l-1.788 4.31h10.127l1.823-4.31Z"/><path fill="#1E1F43" d="M27.86 2.918h5.33v18.687H44.74l-1.817 4.343H27.861V2.918Z"/><mask id="b" width="465" height="262" x="-155" y="-98" maskUnits="userSpaceOnUse" style="mask-type:luminance"><path fill="#fff" d="M-154.13-97.855H309.9v261.017h-464.03V-97.855Z"/></mask><g fill="#1E1F43" mask="url(#b)"><path d="M44.81 15.815V2.918h5.33v12.7c0 4.375 1.907 6.185 5.132 6.185 3.257 0 5.132-1.81 5.132-6.186v-12.7h5.264v12.898c0 6.777-3.882 10.528-10.43 10.528-6.547 0-10.429-3.75-10.429-10.528ZM82.566 11.274c0-2.533-1.645-4.013-4.902-4.013H73.32v7.994h4.343c3.257 0 4.902-1.48 4.902-3.98Zm5.396 0c0 5.133-3.85 8.325-10.002 8.325H73.32v6.35h-5.33V2.917h9.969c6.152 0 10.002 3.191 10.002 8.356ZM130.42 14.433c0-4.376-3.093-7.37-7.205-7.37-4.113 0-7.205 2.994-7.205 7.37 0 4.376 3.092 7.37 7.205 7.37 4.112 0 7.205-2.994 7.205-7.37Zm-19.806 0c0-6.843 5.33-11.91 12.601-11.91 7.238 0 12.601 5.033 12.601 11.91 0 6.876-5.363 11.91-12.601 11.91-7.271 0-12.601-5.067-12.601-11.91ZM142.854 7.195v8.112h6.455l-2.003 4.31h-4.452v6.331h-5.33V2.918h17.33l-1.899 4.277h-10.101ZM105.04 20.611H99.1l4.609 5.337h5.94l-4.609-5.337Z"/><path d="M103.825 11.274c0-2.533-1.645-4.013-4.902-4.013H94.58v7.994h4.343c3.257 0 4.902-1.48 4.902-3.98Zm5.396 0c0 5.133-3.849 8.325-10.002 8.325H94.58v6.35h-5.33V2.917h9.969c6.153 0 10.002 3.191 10.002 8.356ZM16.503 15.307h5.25L16.194 2.931H10.92L.669 25.948h5.454l7.404-17.8 2.976 7.159ZM26.477 25.944H20.91l-2.21-5.319h5.429l2.348 5.319ZM59.559 35.319l-1.24-2.816-1.24 2.816h2.48Zm.287.656h-3.054l-.632 1.437h-.845l2.602-5.746h.812l2.611 5.746h-.862l-.632-1.437ZM62.694 31.666h.821v5.032h3.111v.714h-3.932v-5.746ZM67.923 34.933v-3.268h.821V34.9c0 1.272.583 1.847 1.617 1.847 1.035 0 1.626-.575 1.626-1.847v-3.235h.796v3.268c0 1.666-.911 2.544-2.43 2.544-1.51 0-2.43-.878-2.43-2.544ZM80.293 37.412l-.008-4.187-2.077 3.49h-.377l-2.077-3.465v4.162h-.788v-5.746h.673l2.397 4.039 2.364-4.04h.673l.009 5.747h-.788ZM83.306 31.666h.82v5.746h-.82v-5.746ZM91.293 31.666v5.746h-.673l-3.448-4.285v4.285h-.82v-5.746h.673l3.447 4.285v-4.285h.821ZM93.518 31.666h.82v5.746h-.82v-5.746ZM96.514 34.933v-3.268h.82V34.9c0 1.272.584 1.847 1.618 1.847 1.034 0 1.625-.575 1.625-1.847v-3.235h.796v3.268c0 1.666-.911 2.544-2.43 2.544-1.51 0-2.43-.878-2.43-2.544ZM108.884 37.412l-.008-4.187-2.077 3.49h-.378l-2.077-3.465v4.162h-.788v-5.746h.673l2.397 4.039 2.364-4.04h.674l.008 5.747h-.788ZM114.08 36.755l.303-.64c.427.386 1.158.665 1.897.665.993 0 1.42-.386 1.42-.887 0-1.404-3.481-.517-3.481-2.651 0-.887.69-1.642 2.2-1.642.673 0 1.371.18 1.847.509l-.271.657a2.964 2.964 0 0 0-1.576-.468c-.977 0-1.395.41-1.395.91 0 1.405 3.48.526 3.48 2.636 0 .878-.706 1.633-2.224 1.633-.879 0-1.741-.295-2.2-.722ZM122.28 35.425v1.987h-.812v-2.003l-2.282-3.744h.878l1.839 3.03 1.847-3.03h.812l-2.282 3.76ZM125.244 36.755l.303-.64c.427.386 1.158.665 1.897.665.993 0 1.42-.386 1.42-.887 0-1.404-3.481-.517-3.481-2.651 0-.887.69-1.642 2.2-1.642.673 0 1.371.18 1.847.509l-.271.657a2.964 2.964 0 0 0-1.576-.468c-.977 0-1.395.41-1.395.91 0 1.405 3.48.526 3.48 2.636 0 .878-.706 1.633-2.224 1.633-.879 0-1.741-.295-2.2-.722ZM132.426 32.38h-1.97v-.714h4.753v.714h-1.97v5.032h-.813V32.38ZM140.774 36.698v.714h-4.17v-5.746h4.055v.714h-3.234v1.765h2.881v.697h-2.881v1.856h3.349ZM147.932 37.412l-.008-4.187-2.077 3.49h-.377l-2.077-3.465v4.162h-.789v-5.746h.674l2.397 4.039 2.364-4.04h.673l.008 5.747h-.788ZM150.419 36.755l.304-.64c.427.386 1.157.665 1.896.665.993 0 1.42-.386 1.42-.887 0-1.404-3.481-.517-3.481-2.651 0-.887.69-1.642 2.201-1.642.673 0 1.37.18 1.846.509l-.27.657a2.969 2.969 0 0 0-1.576-.468c-.977 0-1.396.41-1.396.91 0 1.405 3.481.526 3.481 2.636 0 .878-.706 1.633-2.225 1.633-.878 0-1.74-.295-2.2-.722Z"/></g></g><defs><clipPath id="a"><path fill="#fff" d="M0 0h157v40H0z"/></clipPath></defs></svg>