<svg xmlns="http://www.w3.org/2000/svg" width="76" height="40" fill="none"><path fill="#4A4A49" fill-rule="evenodd" d="M29.57 36.82h-.695l-.783.822c-.04.049-.059.059-.206.254V36.82h-.548v2.534h.548v-.822l.323-.323.763 1.145h.695l-1.086-1.526.988-1.008ZM31.497 37.515h-.49v.91c0 .176-.019.274-.058.352a.357.357 0 0 1-.342.205c-.147 0-.255-.058-.294-.166-.03-.069-.03-.108-.03-.284v-1.008h-.498v1.165c0 .48.195.714.636.714.264 0 .45-.108.606-.313v.264h.47v-1.84ZM32.446 37.515h-.48v1.83h.5v-.96c0-.156.02-.244.049-.322a.38.38 0 0 1 .352-.196c.235 0 .323.117.323.42v1.057h.49V38.19c0-.245-.02-.372-.099-.48-.098-.147-.293-.244-.528-.244-.264 0-.44.088-.607.303v-.254ZM35.597 38.053c-.03-.392-.294-.577-.793-.577-.518 0-.802.195-.802.547 0 .177.088.333.215.411.118.069.186.089.529.157.352.078.41.127.41.235 0 .147-.127.235-.342.235-.244 0-.362-.098-.381-.313h-.48c.02.43.313.655.861.655.519 0 .842-.235.842-.616 0-.313-.176-.46-.705-.568-.401-.088-.45-.117-.45-.235 0-.117.108-.176.284-.176.215 0 .313.069.342.245h.47ZM36.967 37.515h-.372v-.558h-.5v.558h-.312v.332h.313v.852c0 .313.01.4.078.489.078.137.215.176.5.176.097 0 .166 0 .293-.02v-.381c-.069.01-.108.01-.147.01-.186 0-.215-.04-.215-.265v-.87h.372v-.323h-.01ZM38.747 38.053c-.029-.392-.303-.577-.802-.577-.509 0-.793.195-.793.547 0 .177.088.333.216.411.117.069.186.089.528.157.352.078.42.127.42.235 0 .147-.136.235-.342.235-.244 0-.362-.098-.391-.313h-.46c.02.43.303.655.851.655.519 0 .842-.235.842-.616 0-.313-.176-.46-.705-.568-.41-.088-.45-.117-.45-.235 0-.117.108-.176.284-.176.215 0 .313.069.342.245h.46ZM40.117 37.515h-.371v-.558h-.5v.558h-.312v.332h.313v.852c0 .313.01.4.068.489.088.137.225.176.509.176.088 0 .166 0 .294-.02v-.381c-.069.01-.108.01-.147.01-.186 0-.215-.04-.215-.265v-.87h.371v-.323h-.01ZM41.233 37.476c-.568 0-.95.391-.95.968 0 .578.382.969.95.969.577 0 .949-.391.949-.969-.01-.606-.372-.968-.95-.968Zm0 .362c.284 0 .44.215.44.596 0 .372-.166.588-.44.588s-.44-.216-.44-.587c-.01-.363.166-.597.44-.597ZM43.493 36.82c-.147-.01-.196-.01-.254-.01-.45 0-.636.166-.636.617v.098h-.304v.332h.304v1.507h.499v-1.507h.362v-.332h-.372v-.147c0-.147.049-.186.225-.186.059 0 .108 0 .166.01v-.382h.01ZM44.794 36.82c-.137-.01-.186-.01-.254-.01-.45 0-.626.166-.626.617v.098h-.304v.332h.304v1.507h.489v-1.507h.362v-.332h-.362v-.147c0-.147.04-.186.225-.186.049 0 .098 0 .157.01v-.382h.01Z" clip-rule="evenodd"/><path fill="#4A4A49" d="M45.812 38.18h-.969v.45h.969v-.45Z"/><path fill="#4A4A49" fill-rule="evenodd" d="M47.975 36.82h-1.771v2.534h.557v-1.037h1.067v-.45H46.76v-.587h1.214v-.46ZM49.452 38.777c-.078.186-.186.264-.382.264-.264 0-.42-.166-.42-.48h1.31v-.068c0-.626-.361-1.017-.91-1.017-.528 0-.92.41-.92.968 0 .578.373.969.94.969.42 0 .754-.235.861-.626h-.48v-.01Zm-.802-.538c.029-.245.176-.411.41-.411.225 0 .362.137.402.41h-.813ZM50.783 37.515h-.48v1.83h.5v-.96c0-.156.019-.244.048-.322a.38.38 0 0 1 .352-.196c.235 0 .313.117.313.42v1.057h.5V38.19c0-.245-.03-.372-.098-.48a.638.638 0 0 0-.529-.244.682.682 0 0 0-.606.303v-.254ZM53.943 38.053c-.039-.392-.303-.577-.792-.577-.519 0-.813.195-.813.547a.49.49 0 0 0 .225.411c.118.069.186.089.529.157.352.078.42.127.42.235 0 .147-.127.235-.342.235-.245 0-.362-.098-.382-.313h-.479c.02.43.313.655.861.655.519 0 .842-.235.842-.616 0-.313-.176-.46-.705-.568-.401-.088-.45-.117-.45-.235 0-.117.108-.176.284-.176.215 0 .313.069.342.245h.46ZM55.313 37.515h-.372v-.558h-.499v.558h-.313v.332h.313v.852c0 .313.01.4.069.489.088.137.225.176.508.176.088 0 .167 0 .294-.02v-.381c-.069.01-.108.01-.147.01-.186 0-.215-.04-.215-.265v-.87h.372v-.323h-.01ZM56.8 38.777c-.078.186-.185.264-.381.264-.264 0-.42-.166-.42-.48h1.31v-.068c0-.626-.362-1.017-.9-1.017s-.93.41-.93.968c0 .578.372.969.94.969.42 0 .753-.235.86-.626H56.8v-.01Zm-.802-.538c.03-.245.186-.411.411-.411.225 0 .372.137.401.41h-.812ZM58.826 37.495c-.049-.01-.088-.01-.117-.01-.265 0-.45.128-.588.372v-.332h-.479v1.83h.5v-.764c0-.206.019-.323.068-.41a.481.481 0 0 1 .42-.246c.06 0 .108.01.186.03v-.47h.01ZM60.607 38.053c-.03-.392-.294-.577-.793-.577-.509 0-.802.195-.802.547 0 .177.088.333.225.411.107.069.176.089.528.157.343.078.411.127.411.235 0 .147-.127.235-.333.235-.244 0-.371-.098-.39-.313h-.48c.029.43.323.655.86.655.52 0 .852-.235.852-.616 0-.313-.186-.46-.714-.568-.401-.088-.45-.117-.45-.235 0-.117.107-.176.283-.176.216 0 .323.069.343.245h.46ZM62.671 37.515h-.518l-.284.87c-.04.118-.069.216-.127.45-.06-.215-.088-.322-.128-.42l-.303-.9h-.538l.655 1.722c.01.03.02.068.02.117 0 .157-.088.225-.293.225h-.197V40H61.302c.196 0 .323-.04.44-.147.089-.098.138-.196.255-.499l.675-1.84ZM64.374 38.053c-.04-.392-.303-.577-.802-.577-.51 0-.803.195-.803.547 0 .177.088.333.225.411.118.069.186.089.529.157.352.078.42.127.42.235 0 .147-.137.235-.342.235-.245 0-.362-.098-.392-.313h-.479c.03.43.323.655.861.655.528 0 .851-.235.851-.616 0-.313-.176-.46-.704-.568-.411-.088-.45-.117-.45-.235 0-.117.107-.176.284-.176.215 0 .313.069.342.245h.46ZM65.743 37.515h-.371v-.558h-.5v.558h-.312v.332h.313v.852c0 .313.01.4.068.489.088.137.225.176.509.176.088 0 .166 0 .293-.02v-.381c-.068.01-.107.01-.146.01-.186 0-.215-.04-.215-.265v-.87h.371v-.323h-.01ZM67.231 38.777c-.078.186-.186.264-.381.264-.265 0-.411-.166-.421-.48h1.31v-.068c0-.626-.361-1.017-.91-1.017-.527 0-.919.41-.919.968 0 .578.372.969.94.969.42 0 .753-.235.86-.626h-.479v-.01Zm-.802-.538c.03-.245.176-.411.41-.411.226 0 .363.137.402.41h-.812ZM68.561 37.515h-.479v1.83h.5v-.989c0-.333.126-.48.37-.48.197 0 .275.108.275.353v1.125h.499v-.988c0-.157.01-.225.039-.294.049-.117.166-.186.313-.186.215 0 .303.108.303.382v1.096h.5v-1.243c0-.41-.226-.645-.627-.645a.7.7 0 0 0-.597.303.53.53 0 0 0-.508-.303.663.663 0 0 0-.588.293v-.254ZM72.544 38.777c-.078.186-.186.264-.382.264-.264 0-.42-.166-.42-.48h1.31v-.068c0-.626-.361-1.017-.9-1.017-.537 0-.929.41-.929.968 0 .578.372.969.94.969.42 0 .753-.235.86-.626h-.479v-.01Zm-.802-.538c.03-.245.176-.411.41-.411.226 0 .373.137.402.41h-.812ZM20.783 18.571c0 .01.02.01.03 0h-.03ZM32.133 5.998c-.03.02-.059.02-.078 0l.029.049.049-.049ZM42.994 9.403c.059.078.147.03.235.049l-.049-.068c-.049.058-.137-.01-.186.02ZM43.865 1.38a.15.15 0 0 1 .098-.069c-.04.078.049.137.117.137 0-.078.137.02.127-.078-.166.03-.176-.225-.352-.088l-.04.039c.01.02.02.059.05.059Z" clip-rule="evenodd"/><path fill="#4A4A49" fill-rule="evenodd" d="M57.808 16.526a4.36 4.36 0 0 0-.381-.088c-.05.01-.079-.107-.127-.02a.738.738 0 0 0-.216-.107v-.02c-.039-.136-.137-.048-.205-.078v.05c-.04.009-.069.038-.098-.01.02-.02.039-.02.049-.04-.059-.078-.147-.01-.235-.058-.049.01 0 .058-.01.088h-.03c-.019 0-.029-.02-.029-.04l-.068.03c-.049 0-.04-.049-.04-.078-.107-.079-.273.02-.361-.088-.04.088-.137-.01-.186.02.03.136-.127-.02-.186.038-.03-.088-.108-.078-.157-.117.02.068-.058.068-.117.068-.069.03-.117-.039-.147-.098 0 .04-.068.089-.107.04l.058-.088c-.078 0-.195.01-.293-.02-.05.01-.127.059-.167.02-.107.078-.117-.128-.215-.06-.117-.048-.215.01-.323-.009l-.01-.068-.068.058c-.03-.068-.088-.058-.127-.039-.078-.059-.118.059-.196.05-.117.028 0-.089-.01-.109h-.039c-.049.098-.147-.01-.186.02l-.03-.049c-.009.108-.107 0-.136.02-.069-.069-.117.029-.166-.05-.079.03-.196-.01-.274 0-.06.05-.157.01-.196-.029-.078-.02-.157-.02-.215-.058-.088.117-.157.049-.225-.03-.05.03-.137-.039-.186.01-.108.04-.206-.098-.313-.068l-.01.107c-.108-.146-.235-.039-.382-.098-.078.118-.137-.049-.215.04 0-.01-.03-.02-.02-.04-.049.02-.137-.049-.166.03-.02-.01-.02-.03-.04-.05-.058-.038-.136-.068-.165.02-.02-.117-.147.03-.216-.029v-.04c-.088.01-.186-.009-.254.06-.04-.069-.137-.079-.196-.069l-.02-.02c-.078.108-.136-.078-.215.02-.078-.039-.176-.068-.254-.02-.069 0-.137-.048-.206-.019-.058-.078-.137.069-.156-.03-.117.138-.313-.136-.42.02-.01-.01-.04-.02-.04-.049-.04.01-.127.01-.137-.03-.059.01-.137 0-.186.06-.039-.02.01-.05-.02-.079-.039-.01-.068.03-.117.03-.098-.05-.235.039-.293-.05-.06.01-.137-.029-.196.01-.088-.01-.137.01-.196-.029.02.01-.03.069-.068.069-.069-.137-.176.029-.255-.088l-.029.088c-.098.01-.049-.108-.137-.108-.059.049-.166 0-.215.098l-.04-.098-.048.069c-.03.01-.05-.01-.06-.03a.174.174 0 0 0-.214.02c.058-.05.01-.127-.04-.147-.048.196-.283.01-.41.088-.118-.088-.147.078-.284-.01-.069.05-.235-.088-.235.04.01.048.069-.03.059.038-.02.04-.059.04-.098.04-.078-.284-.392-.088-.568-.147-.02.098-.058-.04-.117 0-.117.068-.255-.03-.382-.01-.117.108-.225-.059-.332.01-.01-.01-.03-.03-.02-.049-.049.098-.166-.02-.215.069l-.04-.069-.127.069v-.02l-.117-.01v-.039c-.059 0-.088.069-.108.117-.058 0-.127 0-.156-.048-.098.039-.166-.01-.264-.069-.05.147-.186-.049-.245.117-.049 0-.108 0-.137-.029-.04 0-.098.04-.068.088.039.04.088-.039.117.03a.302.302 0 0 1-.186 0c.078-.137-.108-.06-.137-.157.01-.02.03-.01.04-.01l-.099-.049c-.02.04-.039.069-.088.02-.029.068-.117-.01-.146.068-.01-.049-.05-.078-.118-.068-.02.049.049.068.059.107-.03.01-.05.03-.078.02-.05-.01-.069-.068-.06-.088l-.156.02c-.039-.05-.03-.098-.02-.137.725-.06 1.537.01 2.3-.06.42.07.91.01 1.33.04 1.058.068 2.075.01 3.122.098 1.253.059 2.485.156 3.758.215v-.059c-.548-.039-1.096-.098-1.654-.107-.714-.127-1.478-.088-2.202-.127-.146-.04-.313 0-.44-.05-.42.01-.89-.048-1.311-.029l-.137-.039.098-.049c-.04-.606-.04-1.311 0-1.888-.03-.137-.059-.333.02-.44.293.097.606.039.89.127.146-.079.244.048.391.02 0 .038.059 0 .078.038l.02-.039c.049 0 .098 0 .108.04.088-.06.254.048.244-.089l-.587-.058c-.088-.088-.176 0-.274-.04-.107-.02-.205-.01-.313-.058-.127.088-.235-.079-.323 0-.098-.04-.176-.01-.264-.05.01-.88-.02-1.79.02-2.65.107.028.215 0 .322.019.06.01.069-.079.06-.088-.06.029-.138-.04-.197-.02-.137.02-.234-.078-.225-.215-.058.068-.098.098-.137.186-.47-.088-1.017-.069-1.487-.196-.039.04-.068.088-.049.117.069.04.157.02.235.02.401.078.841.088 1.243.147.049.078-.059.088-.04.147.108.058-.048.156.069.185-.157.079.049.186-.088.265.108.058.049.195.049.313h-.03l-.019.137c.04.078-.04.195.02.274-.098.127.078.254-.04.381l.118.04c.03.088-.088.029-.108.078.03.039.108.088.05.137-.138.107.029.225-.06.362.069.078-.029.205-.02.313-.058.362.07.694-.009 1.066.04.04.117-.01.137.05l-.03.019c-.156-.04-.048.117-.117.186.078.03.01.088.01.137.069.088-.049.186-.01.284.01.048.098.01.088.068l-.078.01c.01.059-.059.107.02.147-.088.068.02.166-.04.205.04.117-.029.147-.01.254.05.079.089.02.138.079.01.02 0 .049-.02.058a46.633 46.633 0 0 0-3.307 0c-.196-.01-.42-.029-.665-.02-.137-.029-.274.04-.411 0V12.33l.049-.118c1.115.128 2.162.137 3.258.323.039.02.137-.107.137.02l.049-.05c.088.01.176-.009.205.08.04.048.03.136-.01.165.137.098-.166.274.06.343-.06.03 0 .117-.06.137.02.137.01.294.01.43-.107.118.05.206-.02.323.01.108-.038.196 0 .284-.097.078.108.147-.01.215-.028.06 0 .147.05.177.137-.03.049.127.107.156.274-.088.137-.42.137-.616-.029-.098.06-.196-.029-.294.117-.088-.02-.196.049-.284-.03-.088.01-.146.01-.254.02-.059-.079-.117-.01-.166-.078-.137.068-.284 0-.43-.098-.148.078-.294-.02-.441.069-.411.01-.812.04-1.233-.02-.03-.05-.04-.06-.069.108-.225-.019-.489.08-.704-.05-.098-.02-.225 0-.303.019-.088-.08-.108-.138-.088 0-.03.02-.05.03-.069-.02-.02-.04-.03-.06-.03-.048 0-.048.05-.048.089a.447.447 0 0 0-.108.362c.088.058.01.137 0 .205.069.079.05.176.03.274.039.059-.02.137.02.206-.089.117.087.176.019.283-.108.108.068.304-.079.362l.05.06c-.128.058.058.165-.04.224.088.245-.205.098-.274.196-.098-.108-.274-.069-.41-.098-.099.078-.138-.049-.196.03-.079-.137-.118.068-.186.019v-.059c-.04.03-.069.079-.128.069v-.079h-.41c-.02.03-.01.079-.06.069-.038-.03.02-.049.02-.078-.088.03-.215-.108-.264.03l-.039-.06-.03.079c-.019-.01-.038-.03-.029-.06-.137.01-.293-.058-.41-.019 0 .03.058.06 0 .088 0-.078-.157-.029-.089-.117h-.352c-.04 0-.059-.098-.098-.03-.01.02.01.03.02.05-.069.048-.05-.06-.118-.069a.333.333 0 0 0-.146.02c-.128-.108-.137.107-.265.068 0 .137.186.02.255.088-.127.04-.255-.039-.333.118-.068.01-.137 0-.176-.069-.059-.03-.059.04-.069.078.128.137-.058.284.03.421.03.166.01.401-.02.538.108.147-.058.304.01.44-.03.177 0 .284.02.441-.05.293-.01.646-.04.969-.058 0-.127 0-.156-.04-.01-.058-.04-.136.02-.185-.01-.137.01-.333.068-.46-.088-.069-.02-.137-.049-.196.069-.088-.03-.206.049-.264-.108-.059.088-.206-.059-.255.098-.02.04-.137.059-.176-.078-.176.02-.42-.049-.636-.02-.088.02-.215-.04-.323l.089-.166c0-.03-.04-.03-.059-.049.04-.107-.078-.147-.068-.254-.157-.088-.274-.05-.45-.088l.058-.059c-.137-.01-.195-.02-.342-.04v.089c-.069.01-.127-.078-.186-.01V11.8c-.03 0-.03.04-.04.06-.019-.01-.058.009-.077-.02l.058-.06c-.068-.048-.097.118-.166.04.01-.01.04-.03.04-.049l-.089.059-.01-.069c-.03.01-.068-.01-.078.02-.04-.01-.108-.01-.147.02 0-.02.03-.03.02-.05-.069-.02-.02.098-.098.06-.04 0-.059-.04-.049-.07-.137-.019-.245.02-.372.01-.059-.088-.147.01-.186.01.01-.01.01-.02.01-.039-.059-.02-.127.01-.196.049-.039.01-.098-.049-.098-.069h.03c-.059-.058-.059.069-.137.04-.02-.137-.108.029-.157-.059-.137.01-.303.049-.4-.02-.089.098-.148-.078-.226.02-.147-.088-.225.01-.362-.059v.02c-.078-.02-.166.049-.235-.02 0 .02.01.04-.01.059-.039-.01-.088.01-.107-.02-.02-.89.02-1.8-.03-2.68.05-.187-.137-.128-.234-.216.029-.02.088 0 .088-.059-.05-.02-.088-.068-.147-.049-.03.02-.03.079-.078.06-.01.058-.108.146 0 .185-.079.078.058.118-.04.157l.06.02c-.148.068.029.205-.06.312.02.02.069.069.02.098.069.078-.068.157.02.225-.079.127.02.245 0 .372-.01.059-.05.098 0 .137l-.03.03c.079.117 0 .264.04.39-.098.04 0 .118 0 .177l-.04.01.03.088c-.03.098.02.176 0 .284-.05.01-.05.088 0 .107-.04.118.049.225-.03.333.079.059 0 .137.03.195 0 .079-.03.167-.02.216 0 .244.049.548 0 .822.02.117.03.284.04.4h.029l-.01.353c.03.225-.02.45 0 .695.02.117-.098.235 0 .333-.078.136-.03.254-.02.42-.058.02-.146.05-.235.02-.039-.01-.068.078-.097.01-.02-1.057-.03-2.231 0-3.2-.03-.078 0-.205-.02-.274V8.532c.02-.127.088.04.147-.02.059.02.147.02.166.079h.03c.078-.088.068.108.146.03.108.01.235.019.333.058.49.127.949.147 1.428.284.01-.059.079-.02.128-.03.137.079.342.079.489.128.039-.02.108.02.147-.03.078.079.186.04.293.088v-.078c.059 0 .01.059.05.098.136.02.273.01.4.01l-.049-.05.02-.019c.127.05.313-.049.41.069 0 .117-.077-.02-.117.03-.068-.089-.137.009-.215-.03 0 .03.02.058.04.068l.029-.03.43.08c.167.087.362-.05.5.077.185-.039.352.069.508.05.118-.05.245.087.323-.02l-.157-.03.03-.02c.068.01.156-.028.195.04l-.029.03c.03 0 .088.058.137.019l-.02-.059c.02 0 .03.01.05.02.068-.04.156.02.224.03h.108c.088.038.137.038.206.097l.068-.078c.088 0 .02.078.03.098.01-.128.136-.04.176-.098a204.578 204.578 0 0 0-3.64-.48c-.02-.03-.069.04-.079-.02l-.186-.029-.01.059c-.078.03-.029-.059-.078-.078-.068.02-.205-.088-.225.02-.01-.108-.117-.02-.137-.079-.41-.04-.88-.196-1.31-.215.019.068-.07.039-.079.098-.059-.06.01-.069.02-.098l-.206-.05v.02c-.01.03-.04.02-.059.02-.02-.02 0-.04 0-.059a.854.854 0 0 0-.44-.068v-.05h-.02v.01c-.01.02-.029.05-.058.04-.059-.01 0-.04-.02-.059l-.058.02c-.108-.088-.284-.069-.421-.108-.078-.02-.215-.078-.313-.059-.333-.137-.724-.166-1.116-.264a.507.507 0 0 0-.323-.098c-.186-.068-.372-.098-.567-.146-.079-.03-.167-.04-.255-.089-.156.02-.283-.117-.44-.088-.186-.039-.372-.146-.568-.166-.176-.068-.371-.068-.508-.166-.098-.02-.196-.04-.284-.098-.274-.088-.577-.127-.832-.264-.342-.079-.636-.186-.968-.284-.46-.186-.97-.362-1.439-.558-.372-.088-.695-.254-1.056-.372-.118-.097-.274-.097-.402-.176-.156.02-.264-.147-.42-.166.058-.01.078-.059.117-.098l.03.059.01-.01c.038-.03.058-.127.116-.059.01-.02.06-.03.05-.068-.05 0-.118-.02-.118.049-.03 0-.069-.01-.069-.04.03-.107.196.02.177-.127.029.02.02.06.039.088l.039-.029c.04-.04.108-.088.049-.137.127.02.147-.137.254-.127.088-.137.215-.05.362-.03.098.098.235.089.333.177.127.02.274.078.391.166.088 0 .157.01.216.068.225.069.43.147.645.265.167.029.304.156.47.166.069.098.176.04.255.108.185.088.4.137.616.205.391.176.822.264 1.204.42.058.07.166 0 .224.099.842.274 1.683.577 2.544.773l.03.039c.509.137 1.047.274 1.565.401 1.106.303 2.339.538 3.455.773.508.127 1.086.225 1.604.294.098.068-.01.176.098.225.098-.05-.04-.128.02-.177.293.05.655.098.959.128l.039.029c.86.137 1.702.225 2.553.343 1.674.215 3.376.352 5.118.41.137.069.313.04.47.03.058.049.166-.03.215.01.03-.03.127-.05.058-.108-.107.049-.244.03-.303-.049l-.039.059c-.049 0-.088-.05-.117-.059-.04.04-.108-.02-.147-.03-.098.138-.166-.136-.284.01-.078-.137-.147.04-.245 0V9.53c-.078.069-.205.03-.303.04-.049-.098-.186.019-.274-.04l.04-.058-.04-.02-.02.078c-.029.03-.078.01-.078-.029-.147.04-.244.01-.41.02-.128-.04-.372.029-.52-.098-.068.049-.156-.05-.166.058-.068-.078-.166.02-.254-.058 0-.03.01-.05.03-.088-.05.049-.099 0-.138 0-.01.068-.01.039.01.088-.137.029-.293-.079-.43-.03-.04.01-.04-.039-.02-.058l-.176.039c-.303-.03-.607-.02-.89-.118l.048-.039-.02-.02c-.048-.019-.068.04-.087.079-.215 0-.411-.02-.587-.078-.147.049-.333 0-.47-.069-.284.03-.509-.098-.793-.068-.029-.04-.107-.01-.088-.069-.078.108-.176-.039-.244.02a64.146 64.146 0 0 1-2.212-.343c-.02-.078-.107.01-.156-.039-.04-.039.03-.039.03-.068l-.06-.069c.05-.059-.019-.137.02-.176-.03-.205.069-.43-.049-.626l-.039.039c-.02.078-.049.127.01.196-.059.137.02.264-.01.4-.04.108.02.206-.059.285-.039-.06-.274.01-.313-.108-.068.068-.176 0-.284.01-.078-.118-.185.02-.274-.05-.371-.107-.792-.136-1.144-.283-.01-.059.107-.03.049-.088-.079.02-.088.04-.079.108-.049.01-.078-.02-.117-.03-.04-.049-.196.03-.147-.078-.235.02-.509-.04-.734-.088-.117-.088-.313-.01-.45-.117-.059-.069-.156.01-.186-.079l-.058.03c-.089-.06-.216-.04-.294-.079-.02-.02.02-.03.02-.049-.01-.02.02-.088-.03-.097l-.03.117a1.065 1.065 0 0 1-.4-.117c-.137.029-.304-.03-.43-.079-.382-.068-.744-.176-1.106-.284-.069-.029-.196.03-.245-.088l.098-.097c-.098.058-.069-.118-.167-.06l.01.089c.02.01.069-.069.098-.02-.049.02-.03.098-.078.108-.088-.04-.274-.01-.255-.117l-.185-.04c-.06-.048-.177 0-.196-.068.03-.02.068-.01.107-.02 0-.01 0-.029-.01-.029-.058-.02-.146-.059-.146.049a.089.089 0 0 1-.078-.04c.02-.038.029-.126.088-.117 0-.02.01-.058-.01-.058v.039c-.05-.02-.118.03-.127-.04.01-.01.01-.019.02-.019-.01-.01-.04-.059-.089-.039.03.059-.059.059-.049.098.02.049.118-.01.118.078-.02.02-.04.049-.06.049a.221.221 0 0 0-.205-.137c-.02-.098-.146-.049-.176-.137.04-.059.02.049.079.01.029 0 .058-.01.048-.05h-.039c-.078 0-.234-.038-.332.04-.04-.098-.176-.117-.206-.196l-.02.01c-.01.04-.038.088.02.108l-.03.03c-.048-.02-.107 0-.126-.08l.039-.038h-.04v.01c-.048-.03-.127 0-.156-.098l-.068.058c-.02-.088-.137-.049-.137-.127l-.137.078c-.06-.02 0-.058 0-.088 0-.039-.05-.01-.059-.039-.02.118-.147 0-.225.03.02-.06.03-.088.049-.137-.059-.01-.01.088-.088.058-.04 0-.04-.039-.04-.068-.058-.01-.048.049-.097.068a.37.37 0 0 0-.118-.098c-.029-.039.06-.058 0-.088-.039.02-.107-.02-.097.05-.089-.03-.216.068-.255-.06-.03-.107.117.01.088-.097-.039-.01-.058-.04-.098-.03-.02.01-.029.03-.01.05-.019.048-.058.048-.107.048 0 .04.02.069 0 .098-.04-.01-.088.01-.098-.039-.03-.01-.04-.088.01-.117-.02-.02-.04-.06-.098-.05-.088-.185-.333-.136-.45-.283-.02.088-.088.039-.137.049-.069-.02-.04-.078-.01-.108a.208.208 0 0 0-.235.03c-.058.039-.117-.02-.156-.05l.02-.029c.019 0 .029.02.048.03.01-.03.069-.06.108-.04-.02-.068-.108-.029-.157-.02-.02-.048-.049-.009-.068 0-.05-.028.01-.077-.059-.107-.039 0-.068-.058-.098 0l.098.05c.02.009.02.058-.01.058-.058-.078-.098.02-.146-.04 0-.146-.225-.019-.196-.156-.137.01-.127.196-.235.147-.01-.02.04-.069.088-.049.069-.068-.03-.108-.059-.147l.01-.01c-.049.02-.049-.117-.117-.058l.039.058-.01.01c-.039-.02-.108-.039-.108-.098v.079c-.02.03-.039.039-.078.03-.049-.089-.176-.109-.225-.187l-.059.059c-.029-.05-.078-.118-.146-.108-.02-.01.01-.039.01-.058-.079.01-.147-.02-.245-.06-.03-.029 0-.097-.059-.097-.137.098-.254-.059-.391-.078l.01-.059h-.137c-.04-.03 0-.049.02-.069l-.118-.048c-.137.068-.108-.118-.216-.118.04-.107.235-.137.274-.284.108.06.079-.097.157-.137l.01.02c.01.02-.02.03-.01.04.049.019.02-.04.049-.07.01.01.03-.01.039.01.078-.039.098-.078.157-.117l-.079.01c-.03-.196.157.02.235-.098.059-.049.098-.108.03-.147.01-.03.039-.02.068-.02.137.118.176-.107.293-.107.118-.108.196-.206.343-.225.117-.157.333-.098.41-.303l.02.029c.089-.02.118-.137.216-.108.068-.068.166-.107.235-.137-.069-.127.117-.039.146-.117.128-.01.206-.118.323-.137.118-.098.264-.127.401-.186.118-.117.304-.108.402-.235.137.02.293-.078.41-.147.089.06.138-.039.196-.068.088.039.108-.108.186-.059.088-.107.313-.049.411-.176l-.01-.01-.01.01c-.029.02-.048.02-.078-.01.069-.078.127-.02.196 0 .059.03.069-.049.078-.088.03.01.069-.01.088.03.01-.04.108-.069.03-.108.02-.02.039-.01.058-.01v.069c.03-.01.05-.03.089-.03 0-.117.136.05.127-.088.039-.02.049.02.058.03l.03-.03c0-.078.107-.078.147-.078-.01-.157-.216.02-.314-.03-.068-.01-.097.108-.146.05-.118 0-.216.068-.333.107-.401.03-.734.294-1.115.352-.725.362-1.498.636-2.153 1.116-.695.303-1.311.92-1.967 1.37-.088-.118-.244-.01-.303-.167.078 0 .02-.097.088-.107.108.02.058-.147.156-.108.04-.039.069-.059.098-.108.088.04.088-.068.167-.058.029-.05.117-.079.088-.137.058-.03.107-.118.176-.05.03-.019.03-.068.049-.097.029-.059.088-.117.137-.108.01-.097.127-.088.176-.127l.107-.117c.137-.01.137-.225.314-.176l-.03-.04c.02-.039.069-.01.098-.02.03 0 .078-.058.03-.097.136-.02.224-.196.4-.176.04-.098.186-.098.235-.186.02.02.03.04.01.059.088 0 .079-.118.147-.088.068-.118.196-.059.264-.167.127.02.05-.137.157-.137.02.01.02.03.01.05l.058.019c.078-.03.04-.088.05-.127l.117.039c.039-.078.127-.069.195-.088.05 0 .059-.088.118-.059.107-.108.264-.098.362-.196l-.059-.039c.01-.03.049-.068.078-.049l.03.079c.097.078.088-.118.176-.06.107-.048.215-.077.323-.136.01-.03 0-.059-.04-.088.02-.02.05-.03.069-.04v.079c.069 0 .147.02.166-.059.137.05.186-.127.313-.068.128-.059.255-.098.382-.118.069-.127.264-.049.303-.166.088.108.196-.059.313-.03.274-.127.539-.107.822-.215.118-.01.274-.01.353-.088.137-.01.293-.039.42-.03l-.01-.077c.01-.04.05-.02.079-.04.049.03.02.06.02.098.097.02.176-.029.254-.049.049.02.117.05.147-.01l-.05-.038.06-.05c.019.02.107.04.058.089l.147-.02C35.998.49 35.87.528 35.86.49c.147-.098.245.098.392.079.058-.03.166-.01.127-.118.049-.03.137-.03.166 0 .02.01.02.049 0 .059-.01-.02-.04-.01-.059-.01v.02c.079-.03.167.049.216-.01l-.098-.03c.03-.117.117.01.156-.039 0 .03-.03.04-.03.069L36.82.43c.01.01.049.029.03.048h-.06c.099.02.187.06.265-.048.137.117.264-.01.41 0-.038-.069-.136-.01-.136-.098a.367.367 0 0 1 .205 0c.02.058-.02.088-.058.107.049.069.117.02.166.02.108-.01.235.03.323.02.195.039.391-.04.577-.03l.01.03c.039-.02.137.029.176 0-.059-.138.108-.128.137-.216.049.098-.108.137-.069.235l.216.02c.078-.03-.01-.079.059-.118l-.069-.03c.01-.068-.127-.068-.04-.126.02-.01.04.01.06.02.02.136.176-.02.234.058.088-.01.216.01.323-.01-.039.098-.02.137-.039.215.05-.068.118.02.157-.039.058-.039.01-.088 0-.127.01-.02.02-.059.058-.049.079.069.147-.039.225 0 .04.166.128-.049.206.069l-.108.097c.108.04.157.06.274.05.01-.04.03-.07 0-.108l.186.01c-.02.02-.03.068.01.078.049.01.069-.03.088-.069.03.01.069-.01.088.03l-.049.058c.098.02.225-.039.274.05-.03 0-.107-.03-.137.019l.166.078c-.048.078-.166-.059-.215.02.088.03.206.078.313.078.03-.049-.029-.03-.029-.068.01-.02.04-.04.059-.03-.04.098.078.03.078.098 0-.03.059-.108.088-.068l-.059-.06c-.049.01-.088-.029-.137.02-.02-.01-.02-.029-.02-.058.02-.02.04-.03.07-.03.097.03.136 0 .224 0 .02.02-.078.04-.01.079.079.039.04-.06.07-.069.019-.01.028.01.038.02-.039.068-.01.156-.068.215.049.01.058-.01.107-.04v.08h.03v-.05c.078-.039 0-.176.127-.117-.03.078.137.078.039.137-.02-.01-.03-.04-.049-.03-.02 0-.03.02-.03.03.099.02.216.088.353.107.117-.049-.069-.117.049-.176.068-.02.068.059.098.098.059.01.068-.03.088-.059l.108.06-.04.019c-.049.097.108 0 .108.088.03-.04.01-.098.059-.098 0 .01.02.01.02.03.078 0 .146.029.185.087-.03.04-.098.01-.068.069-.04-.01-.088-.059-.127-.02.029.02.097.069.127.069h.068v.01c.01 0 .03 0 .04-.01 0-.05-.05-.01-.06-.04.04-.029.118-.029.098-.088.04.01.108.02.108.069.108-.078.176.088.245.127-.01.03-.069.069-.02.069.059-.02.04-.108.098-.108.049-.01.049.059.049.059.068-.088.108.03.176.039l-.03.068c.05-.01.118-.117.167-.058-.02.029-.049.068-.088.068.04 0 .068.069.117.04-.029-.177.225.01.304-.118l.01.01.029-.088c-.098-.05-.127.088-.196.058l.03-.078c-.098.049-.128-.078-.196-.098.03.02-.02.05-.03.069-.097.039-.029-.118-.107-.128-.088-.029-.137.01-.186.06l-.02-.05.059-.039c-.02 0-.02-.03-.04-.02-.048.04-.077.04-.117-.029.03 0 .03-.03.05-.059-.02-.029-.05-.02-.079-.02-.108.128-.068-.156-.186-.048-.127-.098-.372-.137-.538-.176-.215-.059-.46-.147-.675-.166-.401-.108-.783-.147-1.174-.235-.157-.05-.333-.03-.48-.098-.137.03-.264-.03-.391-.01-.049.01-.127-.088-.176-.02C38.865.01 38.317.04 37.779 0c-.313.01-.695.03-1.047.068-.069-.078-.137.06-.225-.02-.343.099-.802.08-1.174.197a7.35 7.35 0 0 0-1.38.283c-.01-.02-.03-.02-.02-.039l-.048.059a5.57 5.57 0 0 1-.764.215c-.049.127-.127.03-.146.127-.108.02-.216.118-.333.088-.088.05-.196.03-.255.128-.166-.079-.185.127-.322.088-.069.107-.216-.02-.274.078h.049c.01.02 0 .03-.03.03-.049.048-.098.117-.137.039-.03 0-.049.029-.078.048a.1.1 0 0 0-.059-.048c-.03.029-.107.048-.098.107-.058.03-.048-.049-.078-.059-.059.02-.039.088-.059.118l-.029-.03c-.137.167-.342.108-.49.226l.01.039c-.078.058-.215.039-.224.166-.118-.02-.128.02-.226.03l.02.019c-.02.03-.01.059-.04.078-.048.01-.077 0-.087-.03l.068-.048c-.029-.03-.078.01-.107.01.03.03 0 .058-.02.068-.02 0-.039.01-.049-.01.03.137-.176 0-.225.118.05.107-.117.078-.166.098-.069.107-.255.078-.255.186-.068-.02-.097.088-.166.068-.049.059-.137.098-.127.176-.059-.039-.088.02-.137.02 0 .039.01.068.04.088-.07.01-.128.107-.216.088-.04.147-.215-.02-.166.166-.06.157-.245.02-.284.167l.058.029c-.049.04-.097.049-.137.068 0 .02-.01.04.02.05l-.078.039c-.098-.118-.088.117-.176.088.166.068-.079.058-.05.137-.019 0-.029-.03-.039-.04-.107-.117-.068.108-.176.128-.088-.01-.117.137-.195.117 0 .069.078.01.088.059-.04.049-.147.068-.225.078l.039.04c-.03.029-.05-.02-.088-.02-.196.068-.303-.147-.47-.167v-.01c-.088-.01-.117-.068-.176-.097-.049-.05-.069.039-.088.068-.137.01-.049-.098-.078-.156l-.05.02c-.087-.138-.205-.128-.332-.187-.02-.117-.156-.058-.186-.137-.205-.01-.274-.235-.47-.205-.058.078-.117.127-.136.195.029.06-.06.137.039.177-.02.01-.03.039-.05.039v.039c.53.313 1.136.43 1.664.753l-.02.05.06.029c-.04.058-.089 0-.128 0-.088.068.049.029.059.068-.078.04-.108.108-.167.137l-.02-.059c-.068.05-.009.098-.048.137-.088-.029-.088.05-.137.059 0 .01-.01.03.01.03l-.108.107c-.02.02-.078 0-.059.049 0 .03-.039.04-.058.04-.079.136-.196-.07-.323-.04-.255-.117-.519-.235-.793-.372-.078-.02-.166-.137-.254-.039l-.03-.078c-.127-.04-.244-.186-.381-.118.039.04-.01.098.059.127.048.079.176.05.185.147.147.079.265.157.411.225.098.137-.088.176-.156.304-.049.117-.215.186-.206.332-.039-.078-.068.03-.107.03.078.117-.186.137-.069.244-.039 0-.098-.02-.117.03.02.02.03.039.02.058-.01.079-.07 0-.098.04-.04.01.039.068-.03.068-.058.098-.146.176-.186.313-.127-.02-.039.137-.146.137-.02.04 0 .088.02.117-.01.05-.06.02-.089.03-.098.03-.02.137-.098.147.04.107-.117.107-.107.205-.098.059-.03.206-.137.215.029.088-.118.147-.04.235-.078.03-.127.147-.127.215-.127.03-.107.196-.156.265-.118.049-.01.176-.088.254.049.078-.118.157.02.186.048-.098.068-.274.195-.323-.049-.108.088-.166.059-.274.127-.03.117-.215.195-.293-.03-.069.079-.118.088-.177.04-.078.118-.127.137-.205.167-.206.265-.44.46-.646.03-.166.206-.225.255-.381.293-.343.567-.695.91-.97l.176.108c.137-.068.127.186.235.079.137.078-.05.117-.02.205-.049.03-.03-.039-.069-.049-.01.02-.039.03-.02.059 0 .04.04.04.06.059 0 .03 0 .049-.02.058-.03-.048-.098-.078-.137-.107v.117c-.03.04-.059.059-.108.05-.01.058.108.009.098.087-.039.069-.078-.03-.127 0-.078-.02-.127.05-.137.108.01.049.04.01.059.03-.04.038-.127.136-.167.156l.05.03c.058.136-.108.009-.128.117l.03.039-.03-.03c-.137-.137-.098.128-.176.137-.049.05-.137.186 0 .206l-.04.039c-.019.049-.058 0-.087-.03-.059-.019-.088.06-.117.098.029.06-.118.128-.137.186.029.01.068.059.039.088-.079-.01-.098.06-.137.088.049.147-.137.216-.216.323.02.04-.029.108-.058.108l.01.049c-.137.03-.02.235-.186.215-.02.059.058.05.068.108-.04.068-.098.078-.147.117-.03.069-.068.196-.137.235-.039.078-.098.176-.058.264-.157-.058-.088.176-.206.196.01.049.088.01.117.04.04.028-.02.048-.039.058-.058.03-.039-.03-.088-.05-.02.02-.01.04-.01.05h.02c-.04.049-.098.068-.04.127-.097.088.02.166-.038.245-.02-.01-.059-.02-.069-.05l.04-.038c-.137-.02-.02.146-.137.185l.029.03c-.098.078-.059.176-.118.264-.058.049-.058.108-.137.127-.029.03 0 .05.01.069-.01.107-.058.186-.088.264l-.068-.01v.049c.01 0 .039-.01.049.01 0 .03 0 .059-.03.068.098.108-.137.137-.059.216-.01.02-.029.029-.058.029l.02.147c-.01-.01-.03-.01-.03-.03h-.069v.02h.01c.157.137-.088.107-.088.205.02 0 .04-.01.059.02-.04.088-.04.127-.108.205.05.02.059.079.04.128-.02 0-.04-.01-.06-.02-.136.049.04.137-.029.215-.088.01-.166-.01-.205-.068-.03.03-.117.03-.137 0-.03.01-.02.039-.04.059-.048-.02-.136.039-.146-.05-.03-.029-.117 0-.137.01-.059-.117-.147.04-.215-.058l-.03.058c-.078-.088-.195-.02-.244-.107-.04.03-.059.088-.108.059-.059.127-.049-.079-.137-.02v.059c-.039 0-.068.01-.088-.01l.01-.05c-.03 0-.069-.009-.088.01-.03-.038-.137.02-.157-.01.01.07-.078.03-.117.06-.069-.108-.166-.079-.264-.06 0 .01.01.04-.01.05-.04-.03-.137 0-.137-.078-.04.088-.098 0-.137-.01l-.04.059c-.029.029-.058-.04-.107-.02-.01.01-.03.03-.02.049l-.107.01c-.03.02.01.039.01.058l.949.02c.323.03.636.049.968.03.235.029.363.009.627.029.127.097-.137.127-.01.205-.137.088.049.127.02.215-.088.069-.206-.01-.304.03-.127.029-.254.039-.362-.01-.685.059-1.497.01-2.192.088-.029.04-.127.088-.049.137-.068.069.01.137.02.196.078-.02.166.058.235-.03.059.059.137-.03.166.02.225-.059.44-.01.695-.05l.04-.019.488-.01c.196-.038.47.03.675-.068.128.137.314-.03.431.098-.069.02-.088.068-.108.127.098.059-.029.137.02.206-.078.088 0 .186-.098.274-.03.049.01.078.04.117l-.05.03c.05.097-.078.156-.068.264h.039a2.31 2.31 0 0 0-.098.479l-.049.04c.02.156-.039.322-.01.469-.098.284-.02.636-.098.91.03.059-.048.147.01.205.079.108-.068.264.02.343l-.04.03c0 .028-.009.068.01.087-.019.059.089.147-.01.186.03.059-.038.127.06.127.029.069-.06.04-.06.098l.04.03c-.04.097.059.176 0 .273.068.137-.108.343.03.402a.138.138 0 0 0-.01.137c-.098.137.127.205.058.352-.088.098.088.196.05.274-.588.156-1.195.264-1.733.45a5.852 5.852 0 0 1-.558.147c-.205.107-.46.068-.665.176-.059.02-.127.058-.156.058l-.157.03c-.04.068-.127.049-.166.059-.206.117-.45.117-.666.234-.293.079-.557.206-.86.274-.108.079-.197.05-.304.118-.235.02-.42.147-.636.225-.098.02-.264.059-.284.176.05.02.098.03.118-.01.117.079.176-.068.283-.068.079-.05.196 0 .255-.098.137.049.127-.137.264-.108.137.079.293-.098.46-.098.02-.02.02-.049 0-.058a.23.23 0 0 0-.157.068c-.039-.137.176-.059.245-.137l-.02.088c.118.02.216-.068.304-.107.098.049.176-.02.264-.069.156-.049.323-.068.47-.186.244-.039.479-.117.704-.186.137.02.01-.107.117-.137.03.01.06 0 .079.02l-.02.068c.137 0 .294-.049.401-.098v-.01c-.02.05-.088-.038-.137 0 .04-.107.167-.068.186-.146l.118.108c.049-.06.078.039.137 0v-.03c-.06 0-.128.01-.147-.049.03-.029.088 0 .108-.039.068-.068.185-.01.254.01l-.05-.059.118-.058c.088.02-.02.058 0 .117h.03c.01-.049.107-.069.039-.117.01-.02.039-.02.059-.03.049.069.176.03.254.02.01-.069-.069-.01-.088-.05-.01-.068.088 0 .127-.058l.04.069c.058.049.117-.02.175-.03l-.01-.01c-.029-.029-.029-.107 0-.117l.04.02c.02.107.127.049.176.058v-.01c-.02 0-.03-.029-.05-.039l.118-.01c.03-.019-.01-.038-.02-.058l.02-.02c.04 0 .088.069.108.088l.049-.058c.098.01.156-.137.235-.05.02-.019.02-.078.068-.068.03.02-.02.03 0 .05l.206-.099c.049.01.117.02.146-.029.079.01.118.059.157.117l-.04.02c-.029.03 0 .059.03.069-.049.058.03.117.02.146-.059.05.02.05.02.098-.04.02-.01.098-.07.088-.038-.01-.077-.01-.117-.039-.068.069.05.088.04.137-.06-.01-.088-.088-.147-.049-.137.03-.225-.068-.343-.02-.049 0-.078.06-.049.089-.02.02-.029.039-.049.039-.01-.01-.029-.02-.019-.04a.202.202 0 0 0-.166.06c.01.019.049.019.029.048-.01.02-.03.01-.04.01-.048-.01-.117-.04-.087-.088-.098.02-.118.166-.225.117-.079.128-.147-.098-.216.03-.058-.04-.127.03-.156.078-.04-.02-.069.02-.098.03.01.019.04.029.02.048-.088-.039-.108.147-.186.03 0 .02-.03.068-.069.078 0 .03.059.049.03.078-.05-.03-.108-.068-.098-.127-.05.069-.118-.04-.167.01-.02.196-.176.01-.264.117.01.127.127.079.176.098-.058.078-.186.01-.254.117-.098.01-.03-.078-.059-.097h.01c.02.02.059.02.069-.01.048-.01.029-.059.01-.078-.079-.03-.167 0-.255.058-.04 0-.069-.058-.108 0 0 .02.01.03.03.04l-.069.058c.02.01.03.04.049.04 0 .038.049.087 0 .107-.02-.078-.088-.049-.137-.059v-.01c.02-.02.04-.049.078-.039.05-.107-.107-.049-.098-.127v.02c-.049.01-.107.068-.166.029-.03.117-.147.02-.196.078.02 0 .03 0 .04.02 0 .02.01.039-.01.058-.03.01-.04-.029-.059-.039-.078-.029-.078.04-.108.079.03.088.088-.059.118.039 0 .01-.01.02-.01.02-.088-.01-.04.078-.049.107-.059.03-.078-.069-.127-.03l.03.05h-.03c-.137.039-.078-.108-.127-.137l-.01-.01h-.04c-.068.03-.165-.059-.195.058l.05.05h-.138a.238.238 0 0 1-.205.136c-.01-.029.01-.049.01-.078h-.07c-.087.05-.185.088-.244.137-.03-.01-.02-.059-.058-.039-.05.04-.128.04-.118.127l-.059-.049a.089.089 0 0 0-.039.078l-.058-.039c-.088.01 0 .079-.04.128-.088.039-.039-.079-.078-.098l-.068.059c-.186-.01-.304.156-.51.117-.068 0-.029.107-.107.088l.05.01c-.03.03-.148.039-.206.049.02-.01.02-.03.029-.04h-.04c-.009.03.01.04.02.05-.029.019-.068.068-.088.058l-.02-.068c-.048 0 .01.058-.038.068-.118-.068-.167.127-.245.05-.068.175.049.42.03.596-.138.117.127.108.029.215.078.088.03.303.195.294.04-.05.098-.04.088-.118.04-.088.098.02.147-.01v-.176c.196.01.313-.166.51-.137.38-.195.762-.322 1.154-.489.02-.058.078-.068.117-.058.333-.147.646-.196.95-.372.136-.069.293 0 .42-.127.098.01.157-.098.245-.069.283-.108.587-.196.86-.313.147 0 .324-.147.47-.118.118-.107.323-.097.45-.166.098-.127.284-.03.402-.127.098.049.176-.108.254-.03.059.01.02.069.02.098.097.04-.04.235.117.265-.078.137.059.254.049.42.137.137-.01.353.166.47-.117.127.059.225.059.323.147.157.088.41.245.558-.04.058.068.068.039.117l.068.059c-.02.098.118.117.069.205h.02c.019 0 .048.04.019.069.039.049.108.098.176.068.147.03-.04.05-.03.118.02.107.177.058.187.166.097-.049-.05-.117-.04-.186-.058-.068 0-.186-.098-.225.01-.127-.087-.205-.117-.293-.078-.01 0-.118-.078-.147 0-.255-.166-.47-.196-.724-.068-.098-.068-.196-.137-.294.03-.225-.137-.381-.127-.616-.098-.177.03-.372-.069-.548.088-.04.167-.108.274-.079.157-.107.372-.146.568-.205.127-.01.254-.108.401-.108.137-.156.343-.058.5-.156.097-.069.214-.02.293-.079.098-.078.235.06.293-.097l.02.058c.03 0 .03-.049.059-.068.117.068.205-.04.313-.05.078.01.156-.068.225-.058.107-.02.205-.039.293-.117.147.01.235-.05.362-.069.147.01.294-.058.44-.058v.058h.03c.03-.02.059-.039.049-.088.03-.098.117-.03.156-.068.157-.02.353-.098.49-.069.215-.137.42-.137.694-.166.529-.137.998-.245 1.527-.372.137.02.254-.02.391 0v-.02c.284-.078.597-.078.861-.176.04 0 .108.04.127-.029.363-.059.744-.108 1.106-.137.03-.088.118 0 .157-.059.117.01.264-.01.391-.049.04.235.069.539.02.803 0 .049-.01.117.058.098v-.852l.05-.049c.234-.058.557-.078.772-.117.45-.117.89-.078 1.321-.186.098.059.206-.03.313-.02.04.02.069.02.108-.01.303-.019.577-.048.861-.117.088.059.157-.02.225-.029.362.04.636-.049.969-.098l.02.02c.029.039.038.078.01.117.048.274 0 .617.048.871-.03.274-.03.616 0 .91.03.03.059.01.078-.02l.03-1.878c.381-.04.822-.069 1.203-.098.186-.05.333.01.519-.05.685-.048 1.438-.048 2.074-.077.04-.02.088-.06.137-.03.02.196.02.421 0 .626.02.01.03.04.059.04.049-.216 0-.44.049-.666l.636-.03c.127.06.244-.019.371-.028.069 0 .118.097.177.029.049.068.127-.02.176-.03.137 0 .274.108.381 0 .089.07.225-.029.323.05.225-.079.392.029.627 0 .068 0 .146-.098.156.01l.049-.06.02.03c.039.02.088.02.097-.03.079.118.157-.019.255.079.108-.137.225.049.333-.03.107.118.127-.117.234.03.098-.108.225.01.343-.02v-.02c.068-.029.107.05.166.06l.03-.06c.097.118.176-.097.283.01.04.294 0 .597.03.92l.039.108c.049-.294.02-.656.02-.979.068-.029.136-.02.185-.039.03-.049.069 0 .088.03.079-.03.118.049.167-.03.039.118.117-.03.166.04 0 0-.01.01-.02.01v.019c.05 0 .079 0 .137-.01.079.04.167-.059.206 0 .059.01.107.04.137-.02.068.108.166-.048.274-.01.078.03.166.118.244.03.03-.01.05.01.04.04l.088-.05.029.059c.088 0 .137-.04.215-.059l.02.05c0-.01 0-.03.01-.04.029.01.058-.01.078.01l-.049.049c.088-.02.166.01.245-.05l.039.08c.049 0 .049-.05.058-.08.265 0 .607.05.822.05.03 0 .06.03.069.058.03 0 .049-.029.068-.029.118-.02.255-.049.382.03.196-.079.41.029.616.029.225.059.5-.03.695.068.098-.078.166.059.264.01.03.088.079-.01.127 0 .529.108 1.184.069 1.723.215.43.02.85.108 1.291.137.43.04.861.147 1.302.186.136.04.273.01.4.069.108-.03.294.107.343-.03l.04.079c.029-.01.078.029.097-.02.04.01.127.01.118.078.117.04-.02-.088.088-.068.029 0 .029.039.029.049.049-.01.098 0 .127.068.05-.01.098-.01.157-.049l.01.069c.029-.04.127.02.117-.069h-.01c-.039.01-.049-.02-.049-.049Zm-12.876-4.442c.039.02.097-.01.097.05h-.107l.01-.05Zm-.9.088.039.059c.039-.108.137.108.185-.04l.03.06a.218.218 0 0 1 .127-.06c-.01.03.02.04.04.06.058-.079.175.01.234-.03.176.05.401 0 .577.05.088-.01.196 0 .274.038.118-.02.255.01.323.04-.03.01-.039.038-.03.068-.293.059-.518-.069-.792-.04a8.416 8.416 0 0 0-.998-.097c-.02-.05-.059-.069-.01-.108Zm-.06.05-.01.068c-.029-.079-.107 0-.166-.02.06-.02.108-.068.177-.049Zm-.352.019.079.01c-.02.02-.108.029-.079-.01Zm-.146-.118.039.05c-.03 0-.04.048-.078.038l.039-.088Zm-.098.03v.029l-.118-.02c.03-.029.088-.029.118-.01Zm-1.194-2.897-.059.04c-.078-.05-.166-.02-.254-.06.127-.029.196.05.313.02Zm-.41-.029v.02c-.02-.01-.108-.05-.128.01l-.02-.06.147.03Zm-.197-.02c-.049-.029-.195.04-.205-.058.068.02.166.01.205.058Zm-1.428-.234.049.01c.03 0-.069.068-.05-.01Zm-.157 0-.088-.02c.01-.02.088-.049.088.02Zm-.567-.118c0 .02 0 .05-.02.05l-.049-.04.069-.01ZM34.55 6.918l-.098-.02c.04-.039.069.01.098.02Zm-2.094-.705h.049v.04h-.049v-.04Zm-.215-.058c0 .01.01.01 0 0l-.069-.05c.05-.068.05.02.069.05Zm-.333-.128a.23.23 0 0 1-.098-.049c.04.02.079.01.098.05Zm-.176-.058-.098-.01c.03-.03.059.03.098.01Zm-.176-.225c.01.029-.059.02-.079.039l-.019-.01c.02-.03.059-.03.098-.03Zm-.48 0-.049-.02c.02.01.04 0 .05.02Zm-.489-.176v.02c-.01-.04-.068-.04-.088-.07.04 0 .088 0 .088.05Zm-.46-.186v.029l-.039-.03h.04Zm-.166-.128v.04l-.157-.04c.05-.039.098.069.157 0Zm-1.243-.557c.02-.01.03.01.03.02v.019c-.01.02-.06-.02-.03-.04Zm4.893-3.24c.02 0 .029.02.049.03v.01c-.03 0-.06 0-.05-.04Zm-.137.118.078.02c-.02 0-.098.01-.078-.02Zm-.235.098c.01 0 .03 0 .039.01 0 .03-.03.04-.04.049v-.059Zm-.118-.01c-.02.05-.068.03-.098.06 0-.03.06-.089.098-.06Zm-.127.04c-.03.068-.068.029-.137.039.03-.03.078-.059.137-.04Zm-1.34.616h.029l-.059.068.03-.068Zm-.48.166c0 .02-.02.02-.039.02 0-.01.02-.02.04-.02Zm-.42.186c.01 0 .029 0 .039.01 0 .02 0 .03-.01.04-.02-.01-.059-.03-.03-.05Zm-1.214.744c.01.01-.01.02-.02.03h-.038c0-.02.019-.04.058-.03ZM43.023.939l.01.02-.029.03.02-.05ZM40.245.44h.058l-.068.098.01-.098ZM38.777.284l-.04.098h-.107c.069-.05-.039-.069-.03-.098h.177ZM38.2.333l-.01.088c.068-.03.137-.059.235-.03l.137-.01c-.098.05-.274-.019-.343.108l-.117-.058.098-.098Zm-.128.039c-.039.059-.137-.03-.137.068l-.029-.098.166.03Zm-.274-.01c-.029.02-.107-.02-.088.059h.069c-.01.02.02.03.03.039-.06.068-.118-.02-.157-.03.01-.019.01-.039.01-.058-.01-.02-.03-.01-.05-.01.05-.049.138-.02.186 0Zm-.694.088-.03.01c0-.02.03-.03.03-.01ZM36.78.382c.01.02-.01.02-.02.039l-.03-.02c-.028-.01.03-.049.05-.02Zm-.509.107c.02.069-.078.059-.117.098-.02-.04.039-.127.117-.098ZM35.05.607c-.098.029-.166.088-.264.088.078-.02.147-.118.264-.088Zm-.411.029c0 .03-.03.03-.059.03.02-.01.03-.05.059-.03Zm-.157.088.128.01a.145.145 0 0 1-.128.039V.724Zm-.137.04.04.019-.06.039.02-.059Zm-.097.058-.088.049c0-.04.058-.078.088-.05Zm-.793.186c.04-.03.059.03.098.03h-.108l.01-.03Zm-.626.196c-.02.039-.069.048-.108.058.01-.039.05-.078.108-.058Zm-.147.058h.02l-.02.03v-.03Zm-.196.059c.01.02-.01.02-.02.03l-.038-.03h.058Zm-.137.03c.02 0 .01.029.01.048-.01 0-.03.01-.03-.01l.02-.039Zm-.538.273-.01.04-.049-.04h.06Zm-.675.284c.03-.03.078-.078.127-.068-.02.058-.078.039-.127.068l-.03.03c.01-.02.02-.02.03-.03Zm-5.558 1.34c.02.04.118.02.128.079-.03-.078-.186.049-.128-.078Zm.558.206-.078-.068c.03-.01.078.02.078.048v.02Zm.02.245c.078.01.137.088.225.058l.049.05c-.079.01-.206-.05-.274-.108Zm-1.35.636v-.02c.038-.02.058.02.087.03l-.088-.01Zm.498.215-.058-.049c.02 0 .049 0 .058.03v.019Zm-.743 1.477h.039c.02.01-.03.03-.04 0Zm-7.994 13.22h-.04c.02-.01.04-.03.06-.04 0 .03 0 .04-.02.04Zm2.103-.715c.02 0 .05-.058.088-.039-.02.03-.049.05-.088.04Zm.186-.01c0-.068.069-.078.108-.097l-.108.098Zm.43-.146-.048-.02c-.02-.02.03-.039.049-.02v.04Zm.177-.05.02-.048c.029.01-.01.039-.02.049Zm.284-.107v-.03c.029.03.088 0 .117.02-.04.02-.088.01-.117.01Zm1.39-.381.028-.03.02.02-.049.01Zm-4.062 1.888.01-.03.01.01-.02.02Zm.137-.03c-.01.01-.02-.01-.029-.019.02 0 .02-.02.049-.02 0 .02 0 .03-.02.04Zm.186-.097h-.029c-.02-.01 0-.03.03-.02v.02Zm.05-.01c-.01-.01.009-.03.029-.02.039.02-.01.02-.03.02Zm.322-.049.02-.049.01.04c-.01.01-.01.01-.03.01Zm.098-.078c-.03.01-.03-.03-.04-.04.01 0 .03-.029.04 0v.04Zm.156.03h-.019l.01-.138c.02.03.078-.02.078.05.02.058-.049.058-.069.087Zm.147-.108v-.03c.01 0 .03 0 .05.02-.01.02-.04.01-.05.01Zm.607-.177c-.049-.029-.01-.058-.02-.078.02-.01.03.01.04.02.01.02-.02.039-.02.058Zm.49-.264c.068.059.166-.059.195.059-.049.02-.196.03-.196-.059Zm.45-.039c0-.039.068-.078.117-.098.039 0 .049.088.117.059-.078.04-.176.088-.235.04Zm.596-.156c.01-.06.088-.069.118-.02-.04.01-.079.03-.118.02Zm.235-.03c.03.01.069.02.098.05-.03.009-.118.009-.098-.05Zm.127-.107.04-.03.019.02c0 .02-.04.01-.059.01Zm.108.039c.02-.01.088.02.107-.04l-.029-.039c.078-.039.059.069.078.069-.068.049-.088.03-.156.01Zm.46-.157.03.03c-.06.01-.118-.137-.187-.05l.04.06c-.06-.05-.128.048-.187 0 .128 0 .118-.167.265-.108.01-.02.039-.03.029-.06.04.07.098 0 .137-.019 0 .04.01.088.04.108-.06.03-.157-.049-.167.04Zm.284-.059-.079-.107.01-.01c.049-.01.049.108.088.04.01-.03.049-.03.069-.02.068.097-.069.058-.088.097Zm.41-.107c-.088-.088-.137.058-.225-.01.05-.04.098-.03.147-.069.069.098.127-.097.157.03-.03.02-.059.02-.079.049Zm.245-.069c.03-.039.098-.029.137-.049-.02.069-.108.02-.137.05Zm.264-.088v-.03h.04c.01.03-.03.02-.04.03ZM34.961 7.955c-.01.03.01.117.068.108.079-.05.098.029.157.029.02-.01.01-.04.01-.059.156.127.362.04.518.147.108-.049.147.108.255.01.137.068.274.205.42.137.177.068.411.098.597.137.04.107-.02.254.03.372-.04.508-.01 1.056-.02 1.585-.117-.127-.127-.343-.235-.46.03-.098-.078-.127-.049-.206-.068-.156-.274-.264-.323-.44-.068-.03-.068-.088-.097-.137-.108-.078-.137-.215-.274-.264-.05-.098-.147-.166-.235-.225.01-.069-.147-.098-.166-.186-.03-.088-.186.01-.157-.137-.206-.078-.382-.245-.597-.372 0-.059.069-.03.098-.039Zm-.235-.04.02.02-.04-.029.02.01Zm-3.053-.91c.03 0 .059 0 .088.02l-.088-.02c-.058-.009-.127-.009-.156-.038l.156.039Zm-.274-.087c-.02.049-.107-.03-.117-.04l.117.04Zm-.381-.127.01.02-.05-.02h.04Zm-.088-.02c-.235-.059-.47-.098-.695-.215.245.058.46.137.695.215Zm-.9-.303.029.02-.05-.03.02.01Zm-.226-.098-.039-.01c-.039 0-.107.01-.127-.04l.127.04c.02 0 .04 0 .04.01Zm-2.583-1.703c.157-.039.186-.215.382-.176.058.03.098.108.176.088.068.059-.04.127-.078.137-.225.157-.372.392-.568.519-.107-.05-.235-.05-.303-.127.127-.108.293-.255.391-.44Zm-.147.92-.039.02-.02-.03c.02 0 .04-.01.06.01ZM24.11 8.425c0 .01 0 .029-.01.039h-.03c0-.02.02-.04.04-.04Zm-.568 1.213v.059h-.01l.01-.059Zm-.098 1.086c.03-.166.118-.313.128-.47.137-.205.176-.46.313-.675-.06-.186.205-.205.156-.381.02-.128.137-.196.137-.333.05-.137.147-.254.186-.391.049-.06.078-.128.127-.186.02-.128.157-.176.147-.313.088-.137.186-.274.254-.421.167-.098.137-.323.304-.42.176-.167.244-.441.45-.617.039-.137.156-.245.254-.372.176-.147.245-.411.46-.529.137-.078.176-.43.401-.215.059.01.088.03.147.059-.137.215-.372.391-.528.616-.137.196-.343.333-.411.568-.147.098-.176.284-.313.372.02.098-.118.117-.128.195-.078.137-.156.274-.264.382-.02.088-.068.137-.127.205-.088.137-.127.333-.264.421.02.088-.05.137-.108.186-.147.323-.284.656-.48.969-.117.391-.332.734-.44 1.135l-.176.538c-.107.04-.225.01-.352.02.01-.118.098-.216.127-.343Zm3.533.577c.137.05-.03.137-.01.216-.069.02-.147 0-.215-.01-.098.068-.167-.04-.245.049-.098-.088-.176.059-.264-.03-.059.079-.108-.058-.147 0-.245-.029-.391.03-.616-.02-.03.03-.069.07-.098.02l-.01-.01-.059.05c-.499-.05-1.027 0-1.536 0-.078-.04-.049-.098-.049-.147.098-.069.03-.333.215-.216l.059-.019c.675-.01 1.272.098 1.889.068.048.01.088.079.117.02.323.059.675-.04.969.03Zm-.402-.137.02-.048c.01.01.04.029.01.048h-.03Zm-3.297.02h.342a.785.785 0 0 1-.137.391c-.107 0-.186-.02-.303-.01-.01-.146.069-.254.098-.381Zm-.294.147c.02.01 0 .03.01.049l-.088.02c-.02-.07.069-.01.078-.07Zm-.186 5.949c-.029-.078-.02-.167-.088-.235.069-.088-.02-.215-.01-.323.01.01.01 0 .02-.01.01-.039-.039-.039-.049-.058.05-.079-.01-.147.01-.216.108-.078-.098-.098.02-.166-.02-.02-.069-.03-.069-.069-.02-.058.098-.058 0-.097v-1.497c.098-.372.05-.764.137-1.126.069-.548.206-1.096.343-1.624.097-.03.215.03.303-.01-.127.313-.196.695-.255.998.04.06-.029.108-.029.147-.098.167-.03.382-.088.558.02.039-.01.127.02.166-.088.079.039.137 0 .216l.039.039c.137-.167.068-.372.107-.578.118-.234.088-.557.196-.802.059-.098.01-.235.088-.323-.058-.127.137-.176.059-.293.049-.079.068-.196.186-.186.088.078.186.01.303.029.098.02.196-.088.294-.01.332-.059.714.01 1.017-.039v.02c.098-.03.167.029.255-.069.058-.03.127.098.166 0 .04.049.127.049.166.01.04-.059.098.03.137-.03.157.01.235-.019.392.01.127.02.235-.039.352.01l.127-.02c.03.089.05.196.03.284.156.167-.04.382.068.558-.02.069-.068.196 0 .215-.059.118-.03.284-.04.382-.009.088-.019.196-.028.313.058.088-.079.186.02.274-.02 0-.03.02-.05.03.127.048-.01.107.05.166.019.176-.03.372-.05.538.059.039-.01.098.059.117-.078.05.02.167-.04.245.06.039-.038.107.04.117-.098.02 0 .137-.069.157.128.137-.049.264.03.401-.108.108.088.127.01.215-.05.137.137.284.02.421.087 0 .029.068.048.098-.117.049.02.176-.147.176-.636.127-1.31.206-1.918.401-.283-.02-.557.127-.85.147-.275.098-.607.078-.832.235-.118-.059-.255.049-.392.049-.039.039-.078.039-.107.039Zm3.533-.646-.069.04.05-.04h.019Zm-1.292.255-.02.048-.038-.049h.058Zm-.44.772-.02-.01.04-.019-.02.03Zm2.358-.606c-.04-.02-.117-.069-.137 0l-.02.03.05.058c-.089-.069-.157.127-.206-.03-.059.06-.108.04-.157.079-.01.01-.02.01-.029.02.01-.01.02-.02.03-.02.01-.01.01-.03.01-.04l-.04-.039c-.04.167-.294-.058-.323.147-.088.02-.157-.01-.225.02 0 .137-.137-.02-.137.098-.098.039-.205-.03-.245.078l-.048-.069c-.03.05-.118.03-.098.098-.079-.039-.157 0-.245.02l-.04.068c.01-.039-.048-.068-.097-.088-.059.069-.254 0-.342.108-.05-.04-.128.01-.167.01l.059.068c-.02.05-.069.03-.108.03-.049-.02-.137-.157-.176-.05h-.058c0-.019.01-.048-.01-.058-.079.01-.137.059-.088.108-.06.049-.147.029-.196.097l.01-.097c.01 0 .03 0 .03-.02-.04-.049-.138.02-.187.03-.058.039-.02.078.01.117-.108.049-.147.107-.284.078-.02-.03-.01-.078-.049-.088-.088-.049-.058.069-.117.069v-.098h-.059l-.01.088c-.029 0-.058-.01-.068.01v.02c-.049-.02-.117-.02-.137.048.03.059.068.02.107.01-.01.039.01.058.04.078-.04-.03-.255.069-.235-.098-.03-.03-.05-.068-.088-.058 0 .01 0 .01-.01.01.01 0 .01-.01.01-.01.02-.01.03-.02.049-.04-.108-.02-.03-.156-.118-.186.02-.01.04-.029.04-.049-.06-.048-.02-.127 0-.166v-.01c.029.05.097.03.136-.029.137-.03.284-.04.421-.127.127.068.235-.01.352-.05l-.058-.068c.039.06.117-.01.137 0 .01.02 0 .04.02.06.058 0 .048-.089.117-.089.088.04.195.03.293.02.01-.03.04-.06 0-.079-.01-.01-.02-.01-.039-.01.02-.019.04-.01.059-.01-.01.02.02.03.03.05.077-.01.048-.108.136-.069 0 .02-.039.04-.01.059.098-.02.235.01.313-.098l-.029-.02c.01-.039.069-.02.098-.029.02.01.03.05.059.04.02-.03.01-.05.049-.089h.02c-.02.05-.05.069-.05.108.02.02.059.01.088.01.118-.069.313-.069.45-.137l-.088-.059.304-.049c-.01.03-.03.049-.02.078.069-.098.166.05.245-.068l-.05-.05c.099-.058.167.07.245.02.079.088.088-.166.137-.02.06-.009.147.02.147-.068.01.01.02.03.04.03.029-.03-.03-.118.058-.098.04.02-.01.04.02.059.039-.01.136 0 .107-.079.118.128.235-.098.313.02h.137c.01.04-.02.088.02.108-.069.097 0 .244-.098.352Zm.078-10.5c.059.128-.058.275.05.373-.04.156-.089.371 0 .557-.06.304 0 .646 0 .96l-.07.107c.07.078 0 .176.04.284-.078.049-.01.107.03.137-.05-.01-.05.058-.05.078.118.098-.117.156.02.225.039.078 0 .156-.02.225.05.059-.02.108 0 .147-.107.058 0 .107 0 .166l-.049.225.069.01c.02.049-.04.088.02.127l-.098.088c.146.059-.04.167.058.264-.088.118.088.255-.058.353.088.049.039.117.039.195l-.04.03c-.195.02-.381-.03-.538 0l.03.039c-.05.02-.108.068-.167.049-.029-.03.04-.079-.02-.108-.038-.01-.048.049-.087.049l.059.03c-.079-.03-.147.087-.206-.01 0-.02.02-.02.01-.05l-.01-.01c-.078.108-.245.04-.372.06l.05-.069-.109.01v.059h-.078l.059-.069c-.04-.039-.069.03-.108-.01-.02.137-.244.069-.352.059-.078-.04-.117-.01-.157 0v.02a.73.73 0 0 0-.195-.03l-.04-.049c0 .059-.048.059-.097.059-.05-.02.03-.069-.04-.059l-.01.05c0-.02.01-.04-.009-.05-.078.059-.215.03-.323.02 0-.049-.049 0-.058-.02-.04.01-.03.05-.098.03v-.059l-.118.049v-.03c-.059-.048-.098.069-.166.02a.708.708 0 0 0 .137-.401c.059 0 .059-.069.088-.108.01-.078.04-.166.068-.254.128-.157.098-.352.245-.509.049-.205.147-.41.225-.607.04-.107.157-.205.147-.352.098-.01.02-.098.039-.137.059.02.059-.039.078-.068l-.02-.069c-.01-.039.03.04.06.01.058-.03.087-.078.068-.147.059 0 .068-.078.098-.127-.04-.078.137-.127.058-.186.079-.01 0-.108.079-.108a.943.943 0 0 0 .117-.244c.03-.078.147-.069.108-.166.098-.05.078-.089.166-.147l-.03-.05c.236-.097.177-.4.382-.537.03.02.06.029.098.02.01-.06-.058-.118.01-.177.157.078.108-.127.206-.156-.02-.04-.03-.079 0-.118h.02v.05c.028.028.068 0 .097-.02.01-.06-.088-.05-.04-.108l.07.068c.107-.039-.02-.156.107-.166-.069-.088.049-.108.088-.147.059.04.108-.039.137-.078.01-.04-.078-.069-.01-.098.03-.059.137.04.118-.059-.01-.01-.02-.01-.02-.01h-.04c.01 0 .03-.01.04 0a.225.225 0 0 0 .166-.117c-.01-.058-.058.01-.078-.03.069-.048.206.02.196-.117.088-.01.225-.078.244.05.079-.01.128.029.157.087.088-.048.117.069.166.079.235-.04.372.195.587.146.05.157.177-.058.216.118.195 0 .342.166.518.176.078.098.186-.01.255.088.039-.049.107.02.156.03.02.107.225.039.225.107.098.108.343.03.343.147.235.049.47.147.714.215l-.01.01c.05.049.186-.02.225.108.079-.04.137.097.206.039v.02c.088-.01.225-.01.284.087l.185.02c-.02.01-.01.03-.01.039.118 0 .265.01.333.098l.079.01c-.186.078-.46.068-.676.127-.02.039-.107.02-.137.02-.186.087-.44.068-.596.215-.147-.06-.255.098-.372.127-.108.078-.255.059-.343.156-.117.01-.137.157-.254.137-.04.03-.059.088-.098.06-.45.43-.998.91-1.155 1.516-.068.088-.107.205-.146.323l-.02-3.924c-.02-.04-.078-.03-.107-.01l-.069.069c-.01.88.02 1.81-.02 2.602.069.06-.039.108 0 .177 0 .205 0 .4.02.596-.069.06.049.128-.02.177-.01.117.03.264 0 .381.01.059.04.137 0 .186-.029.166.05.343-.029.47-.049.107.127.166 0 .244.098.118-.049.235.04.313-.02.02-.01.05-.01.069.029.04-.01.098 0 .147-.01.049.029.078-.03.107-.205-.058-.46.069-.616-.107a.24.24 0 0 0 .01-.216c-.07-.029.029-.068.029-.117-.04-.049-.128-.049-.098-.127.03-.02.107-.01.098-.078l-.059-.118c.01.01.03-.02.02-.02.01-.029-.03-.058-.05-.058.04-.04.089-.078.089-.127-.079-.03-.098-.079-.079-.137.03-.02.06-.03.079-.05-.01-.038-.059-.078-.098-.078.127-.039-.049-.176.068-.264.01-.068-.01-.137.03-.205l-.098-.127.059-.01c-.05-.108.049-.264 0-.401.098-.06-.05-.118.039-.157l-.059-.059c.02-.02.059-.02.078-.049l-.078-.068.078-.069-.058-.107c.01-.05.088-.02.098-.078-.03-.069-.069.01-.108 0v-.069h.058c-.048-.068.098-.156-.019-.166.059-.02-.01-.108.04-.147l-.05-.059c.03.01.05 0 .059-.02-.03-.078-.069-.068-.069-.127.03-.058.06-.166.01-.244-.03-.02-.078-.098-.02-.118.01-.029-.039-.039-.039-.068.03-.03.079 0 .098-.04l-.058-.058c.029-.02.049-.049.02-.078-.118-.059.136-.118.019-.176.088-.059-.059-.128.039-.186 0-.059-.088-.02-.069-.088.03-.01.088.02.098-.03l-.088-.088a.504.504 0 0 0 .088-.195l-.059-.05c.02.01.04.03.06 0 .068-.078-.099-.175.009-.234.069-.196-.04-.372 0-.577-.117-.05.069-.089-.02-.137-.166.02-.127-.265-.313-.167-.02.059-.039.127-.098.167-.048.283.118.518.01.763Zm3.934 1.468c0 .05-.05.02-.069.02-.02-.049.05-.03.069-.02Zm-.059-.176c0-.02 0-.029.02-.029v.03h-.02Zm-.186.03c-.068.02-.03-.03-.049-.059h.059c-.02.01-.01.04-.01.059Zm-.548.274c-.088.01-.117-.098-.205-.05v-.019c.166.05.049-.147.205-.127 0 .088.108.108.167.127-.06.059-.177-.078-.167.069Zm.079.029h-.02c.01 0 .02-.01.02 0Zm-.04.078c-.02 0-.127.03-.127-.039l.127.04Zm.02-.332c.049-.06.098-.098.166-.108l.01.098c-.088-.088-.088.049-.176.01Zm.284.029c-.01.03-.06.068-.108.059l-.01-.02c.03-.03.098 0 .118-.039Zm-.225.225c.137.049.117-.157.264-.117-.108.049-.147.137-.264.137v-.02Zm.215-.313c.059 0 .107-.04.147.01-.05.058-.108-.01-.147-.01Zm-.03-.069c.069-.02.137-.068.206-.088v.04a.488.488 0 0 0-.205.048Zm-.792.411c0 .02 0 .03-.01.04l-.02-.04h.03Zm-.998 5.245v.02l-.04-.03c.01 0 .03 0 .04.01Zm-.049.382-.049-.01.01-.04.039.05Zm-.098-.666.01.05h-.01v-.05Zm-.049 1.624c-.03.01-.039.06-.078.03l.049-.069c.01.01.078.01.03.04Zm-1.35.979c.068-.117-.01-.235.137-.323-.03-.03-.078-.078-.059-.137.03 0 .078.049.108-.02l-.03-.146c-.029-.02-.049.049-.068.01v-.03c.049.05.059-.039.088-.068.078-.118-.098-.196.02-.323-.04-.088-.069-.186 0-.284-.06-.293.02-.607-.02-.88.059-.06-.02-.138.02-.186-.098-.157.127-.274-.02-.421a.125.125 0 0 0 0-.118c-.03-.137.147-.274.02-.391-.01-.088.078-.147-.02-.205.03-.06.04-.04.098-.079-.118-.088-.049-.235-.02-.342.088-.03-.01-.079-.01-.118.079-.058.206.05.284 0 .079.03.108-.058.157.01.078 0 .205-.02.186.117-.04.079-.04.157.01.216.029.156-.05.284 0 .41-.02.089-.05.177-.01.255-.059.088.03.245-.04.323 0 .137 0 .284.04.411-.069.069-.01.196-.01.284-.049.244-.02.548.01.802-.05.294-.01.5-.04.803-.019.313.06.489.04.753.039.039.049.068.039.117-.078.05-.215 0-.303.05-.177.068-.411.048-.597.107-.079-.215.02-.392-.01-.597Zm.636 1.164-.03-.029c.01 0 .03-.01.03.03ZM30 16.448l.04.05c-.04.019-.02-.03-.04-.05Zm3.014-.41c-.05.009-.137-.03-.137.058-.118-.176-.137.137-.245-.03-.068.03-.127-.048-.166.03-.03-.078-.078 0-.118 0l-.01.01c0 .049.099.049.06.088-.06-.05-.157-.04-.206-.02l-.03.03c-.039-.137-.156-.02-.244-.06.01.108-.098.118-.166.089-.069-.03-.196.137-.274-.01-.03.02-.088.03-.088.069-.03 0-.05-.05-.079-.06-.088-.009-.078.128-.166.08l-.069-.08c-.058.04 0 .197-.137.138-.029-.069-.098-.059-.137-.069l-.029.02.049.049c-.117-.098-.108.059-.215.03l-.02.038c0-.068-.088-.107-.137-.068l.04.049c-.079-.01-.05.088-.108.117-.02-.03-.06-.117-.01-.156l.01-.01-.02-.03c-.068.04-.098.128-.166.098-.02.02-.02.06-.05.06-.048-.01-.078-.109-.146-.07-.02.05-.137.118-.186.157-.02-.049.04-.059.02-.127-.079.078-.206-.059-.255.088.03.059.069-.01.108.01v.039c-.108.02-.147-.04-.245-.059 0-.02-.01-.039-.029-.049-.01-.01-.02.01-.03.02 0 .02-.01.03.01.039h.02c-.01.02-.01.049-.04.04.03-.118-.077 0-.117-.04-.029.117-.137 0-.186.117-.137.01-.205.088-.352.05-.049-.05-.117-.06-.156-.01-.05.137-.245.058-.333.137-.03-.06-.098-.04-.117 0-.079-.118-.118.097-.235.029.02-.01 0-.04.01-.049-.02-.02-.04-.03-.06-.03.05.157-.175-.01-.136.147-.059-.058-.108.02-.137.06-.059-.04.059-.07-.02-.108-.039.058-.176.136-.235.048-.049.04 0 .088-.078.088-.137-.088-.039-.244-.088-.381l.04-.118c.087.088.136-.058.205-.039 0-.02-.01-.049.01-.058.02.078.117.039.176.039.039-.098.146.03.166-.098.049.098.117.01.176.02l.137-.06c.03.04.03.157.127.118.079-.03 0-.117.059-.137.117.069.186-.137.284-.039.195-.069.391-.059.587-.088.098-.108.205.03.303-.088.079.039.147-.059.206 0 .156-.098.323-.02.48-.098.068.078.126-.04.175.03.059-.138.167.039.255-.07.127-.019.303-.048.42-.038.137-.098.294-.059.44-.079.138-.058.294-.01.431-.088.059.06.137-.049.196 0l.92-.137c.097-.029.146.079.107.137.01.098.03.226-.02.284Zm.107-6.292c0-.108-.049-.235 0-.372-.039-.215.03-.45-.039-.636-.059-.01-.039.068-.039.107v2.593c-.117.088.078.176-.049.284l.05.108v3.689c-.099.068-.226.029-.324.088-.734.039-1.507.176-2.22.264-.197.039-.441.068-.657.059a.983.983 0 0 1-.303.068c-.274.01-.47.088-.734.127-.098-.01-.244.02-.352.05-.088.019-.176.019-.274.038v-1.467l.03-.05c.068.079.058.177.146.226h.03c-.05.058-.04.127.02.137l.058-.127c0 .078.127.097.117.156-.02-.01-.049 0-.058.02.058.049.137.137.039.176-.01.03 0 .068.03.068h.038c-.078.03-.01.127.03.137-.02.01-.05.02-.069.05.186-.01-.078.244.147.165-.069-.068.098-.097.02-.166.039-.039.039-.117 0-.147.048-1.193.019-2.358.039-3.59l.068-.079c.059.127.117-.068.196.01 0-.04.039-.069.058-.04.02.099.186.01.274.04.02-.069.088-.03.137-.04.04.05.128.02.196 0 .127-.048.225.147.313 0 .078.108.196.04.294.06.078-.069.147.048.225-.03.342.02.646 0 .949.059.049-.069.137-.03.196-.04.107.05.205 0 .323.05.078-.079.166.058.224-.05.138.089.304.02.46.06-.088.088.06.185-.02.273.07.284-.019.48.03.764-.078.107.05.195-.03.313a.465.465 0 0 1-.009.362c.049.088 0 .225.01.352.039.127-.01.274 0 .401-.059.235.02.47.03.705.019.078-.06.293.068.332l.049-.049c.01-.146-.02-.322.02-.46-.099-.078.097-.136-.02-.176.048-.186-.04-.342.048-.528-.117-.156.069-.293-.048-.45.127-.069-.088-.147.02-.225 0-.04-.06-.098.009-.108-.04-.137.02-.244-.01-.41.108-.108-.127-.206.03-.324-.03-.088 0-.088 0-.176-.137-.205.068-.4 0-.636-.03-.058.039-.146-.04-.176.108-.127 0-.293.04-.41-.079-.099.068-.236-.02-.334.049-.088.01-.195-.01-.283.01-.529.05-1.008.03-1.517 0-.186 0-.499.02-.714l-.06-.04c.03-.019.088-.068.04-.097l-.137.02c-.06.195.078.45-.02.684.01.05.049.079.01.118.068.235-.05.45.02.675-.07.147.058.313-.03.44.078.069-.04.137.03.196.01.137-.108.245 0 .342-.05.128.019.294-.06.411.04.137.03.274.02.392-.117-.137-.332-.02-.44-.088-.069.107-.108-.04-.176.01a5.669 5.669 0 0 0-.89-.06c-.079-.058-.138.05-.196-.019-.147.127-.225-.068-.402.02l-.029-.05c-.068.04-.186.04-.254.05-.078.049-.137-.088-.225-.02-.088-.068-.186-.02-.274-.039-.01.01-.03.02-.02.049-.049-.137-.156.02-.235-.059-.254-.02-.518.03-.753-.03-.069-.41.049-.83.176-1.242.137-.313.284-.675.558-.89.068-.127.235-.196.352-.284.02-.157.196-.137.294-.225.058-.088.166-.098.254-.157.04-.078.137-.01.176-.097a.892.892 0 0 0 .343-.118c.107-.01.254-.01.352-.088.078.078.117-.059.176-.039.714-.186 1.34-.049 2.035.04.861.117 1.575.655 2.153 1.29.215.314.46.617.587.96.088.078.01.264.147.254.029-.117-.088-.205-.098-.333-.108-.225-.206-.48-.382-.665L35.9 9.53c-.567-.655-1.242-1.281-2.113-1.438l-.05-.049c-.332-.04-.616-.147-.929-.166-.137-.01-.254-.059-.391-.069-.127-.02-.255.079-.372 0-.098.04-.245.04-.362.05-.059 0-.117-.07-.137.019-.078.01-.127.03-.196.02l.167-.089c-.118-.088-.216.059-.343.03.01.088-.147 0-.107.097l.088.04c-.05.029-.098.029-.137.039v-.079c.049-.029-.01-.107-.04-.137l.03-.068c.049.068.137.02.166-.078.03.029.079.058.118.029-.01.02.01.02.02.03.078-.04-.01-.157.097-.167.069.03.186-.049.206.059-.01.039-.05.078-.01.107.117-.01.01-.127.039-.176.049.04.03.088.088.118.108.049.117-.069.137-.118.02.079.098.05.147.04.03-.079.176-.128.156 0 .274-.06.578 0 .89 0 .04.029.079.058.138.029.068.088.176.176.323.127l.029-.02c.03.137.186-.049.254.098.059-.058.079.04.137.04l.137-.01h.098c-.01.02.01.029.02.039l.088-.01v.03c.205-.01.46.166.685.283.89.587 1.526 1.438 1.81 2.397l.127.421c-.147.069-.362-.059-.362.186-.04.137.069.254.01.362-.137.108-.225-.137-.362 0l-.02.04a.82.82 0 0 0-.46-.01c-.146-.02-.264-.06-.42-.05-.04-.146-.225.03-.274-.117-.108.049-.235-.02-.353 0-.088-.088-.176.098-.244-.03a1.054 1.054 0 0 0-.392-.01c-.313-.048-.616-.019-.9-.077a4.936 4.936 0 0 1 0-1.077c0-.137-.068-.303-.01-.47Zm-3.463 1.673v.088c-.04-.059-.128-.137-.196-.069-.02.03-.078-.02-.078.03l.02.01c-.02.048-.07.02-.099.029-.02-.04-.078-.108-.117-.05-.049.148-.137-.068-.166.099-.02-.04-.098-.108-.147-.05-.04 0-.059-.048-.069-.087l.02-.059c.401-.02.695.049 1.076.04-.107-.01-.107.126-.196.097l.098-.049c-.029-.068-.098-.02-.146-.03Zm1.232.03h.04l-.03.028-.01-.029Zm5.94 3.58c.059 0 .03.069.049.098-.088.059-.167 0-.245.04-.137.01-.254.058-.391.058-.079.049-.196-.049-.274.04-.059-.08-.118.038-.167-.02-.097.078-.215.01-.332.098-.225 0-.421-.01-.675.019l-.01-.02c-.597.098-1.125.108-1.683.206V11.83l.02-.04c.704-.01 1.37.079 2.064.06.157.048.362.019.548.058l.783.02.039.039c-.03.508.01 1.008.01 1.477l.01.411c-.02.118-.01.245 0 .362-.03.059-.05.176.029.225-.01.02-.04.03-.03.059.03.049.069 0 .098 0 .01-.069-.03-.127.05-.166-.03-.186.019-.353-.03-.548.02 0 .039-.03.049-.04l-.02-.068c.098.069-.03.245.098.294-.04.068.04.176-.078.205.137.088-.03.225.107.303.02.03-.029.04-.058.05-.02.087.088.175.029.244.04.03-.01.117.03.127h.048c-.03.01-.039.01-.049 0-.058-.01.01.088-.02.127Zm-3.21-3.463.137.02c-.029.038-.058.028-.097.038.029-.039-.01-.049-.04-.058Zm.627.02.146.028c-.029.03-.127.02-.146-.029Zm.313.028h.117c.01.02-.098.05-.117 0Zm.146.04c.02-.02.03-.02.05-.02.039-.01.087 0 .117 0-.03.02-.078 0-.118 0-.02 0-.039.01-.049.02Zm.274.058v-.078c.226.03.548 0 .774.078a.966.966 0 0 1 .41.04c.079-.079.137.068.206 0 .04.01.108.01.137-.04.02.03.049.059.039.098-.186.04-.372-.049-.548-.059-.059.088-.107-.058-.156.04-.137-.128-.265.058-.392-.069-.166.049-.303-.068-.47-.01Zm1.723 1.781c.029.01.01.069.029.108l-.01.01c-.078-.03 0-.108-.02-.118Zm.988 2.016c-.147-.03-.235.059-.372.059-.04.029-.078.068-.127.048.02-.088-.078-.048-.108-.088a.41.41 0 0 1-.205.079c-.079-.04-.147.058-.215.068l-.147-.01c0-.01.01-.029-.01-.039l-.02.05c-.01-.128-.107.048-.156-.06-.088.128-.264.03-.382.098 0-.01-.01-.02-.01-.03-.117-.019-.137.226-.225.05-.176 0-.381.03-.557.098-.04-.05-.108-.02-.137 0l-.01-.04-.078.07c-.04-.03-.06-.08-.108-.08 0 .02-.03.02-.03.04l.03.02v.02c-.049-.128-.147.019-.225-.06-.049.137-.157-.049-.215.04l.058.048c-.068-.068-.156.088-.264-.029-.098.059-.176.137-.284.059l-.088.03c-.01-.06-.078-.02-.117-.03 0 .107-.108-.03-.137.068l-.059-.039c-.078.245-.205-.137-.313.098 0-.03-.049-.069-.078-.04-.02-.117-.01-.224-.01-.351.695-.118 1.39-.137 2.123-.235.059.068.118-.03.176-.02.773 0 1.517-.147 2.32-.156.029.088.068.205-.02.264Zm3.522-3.67c0 .01.01.02.01.02 0 .02-.02.02-.03.02l.02-.04Zm-.146.147c-.01.02-.05.01-.079.01.01-.03.069-.02.079-.01Zm-.284-.02c-.03.079-.137-.01-.176.03-.05-.107-.137.03-.206-.03.108-.087.264.01.382 0Zm-.45-.029c-.05.088-.127-.048-.186.03l-.098-.059c.117.01.186-.02.284.03ZM40 11.908c0 .03-.059.03-.059 0H40Zm-1.018.03c0 .019-.039 0-.048 0 0-.02.039-.02.048 0Zm-.89-.138.42.03c-.166-.01-.263 0-.42-.03Zm-.215-.01h.049c0 .02 0 .04-.02.04h-.03v-.04Zm3.923 3.357c-.029.039-.088.01-.097.068h.068c-.059.05-.166 0-.245 0-.107-.098-.176.05-.274.01-.058.157-.166-.049-.254.108-.098 0-.156-.01-.235.01l-.01-.05c-.107.108-.195-.068-.254.079-.068.01-.04-.059-.108-.059l-.039.069-.039-.03c.01-.02.03-.03.02-.059-.059-.058-.059.069-.118.06-.098-.06-.195.009-.303.019-.088.088-.147-.108-.206.02-.048-.04-.137-.06-.166.01l-.02-.02c-.048.098-.156-.098-.205.049-.068-.02-.137-.079-.196.02l-.02.028c-.038-.01-.019-.097-.077-.078-.04.079-.177 0-.245.079-.088-.04-.206.048-.294 0-.137-.05-.166.078-.283.019-.108.059-.216-.01-.314.059 0-.098-.058-.255.04-.313.959-.06 1.927-.108 2.788-.098.216-.05.49 0 .705-.05.098.05.147-.038.235.02.029-.039.088-.01.137-.02.02.01.01.04.01.05ZM41.693 15c-.411-.02-.861.03-1.302.03l-.039-.03c-.724.108-1.536.04-2.27.147l-.205-.03.01-3.12c1.056.038 2.054.077 3.101.165.206.02.43.069.666.05.146.117-.079.215.029.352-.03.694-.02 1.36-.01 2.084.176-.05.127.156.137.264.02.088-.088.059-.117.088Zm1.33.382v-.04c.02.01.04.01.05.03-.01.01-.03.01-.05.01Zm.167-.03-.02-.03c.01 0 .01 0 .02.01v.02Zm.127.02h-.02c0-.02.02-.03.04-.03 0 .01-.01.02-.02.03Zm.382-.088.029-.03.02.02c-.01.02-.03.01-.05.01Zm2.553.049c.01-.03.04-.05.06-.02.009.03-.03.02-.06.02Zm5.294.283.078.01c-.029.02-.088.03-.078-.01Zm4.472.558-.04-.02h.04v.02Zm.244.05.01-.05c.04.03.078.05.117.04-.039.019-.088.01-.127.01Zm1.497.361-.01-.039h.03l-.02.04Z" clip-rule="evenodd"/><path fill="#4A4A49" fill-rule="evenodd" d="M32.055 5.998v-.01h-.01l.01.01ZM39.306.45c-.06-.03-.108.02-.157 0 .01.04.078.069.127.069.01-.02.04-.05.03-.069ZM39.393.567l.05.02c.097-.01.01-.098.038-.137-.068 0-.097.088-.088.117ZM40.127.587c-.068-.059-.127.03-.186 0 .01-.068.108-.01.088-.088-.039.03-.127 0-.137-.059-.03.01-.088-.01-.088.04.03.058.069-.03.098.029.03.049-.04.059-.04.078l.02.02c.089-.02.177.029.294.049l-.049-.069ZM39.188.538c-.03-.02-.098-.03-.098.02.039-.01.068.03.098-.02ZM40.372.646c.02.049.058.059.107.068.03-.03 0-.058-.03-.078l.05-.049c-.05-.03-.108.03-.127.059ZM40.186.656c.02.01.03-.01.04-.02l-.01-.02-.03.04ZM40.519.616c.039.04.01.137.088.118v-.02c-.01 0-.01-.01-.02-.01.02-.039-.02-.088-.068-.088ZM40.754.656c-.03-.03-.06 0-.05.039h.04c.01-.01.01-.03.01-.04ZM41.311.812c-.01.03.04.03.059.05l.02-.05c-.03.01-.05-.02-.079 0ZM42.123 1.037h.059V.978c-.04-.02-.088.03-.059.06ZM35.264 1.174c.059-.02.078-.088.088-.137-.02-.059-.097-.059-.137-.039-.029.069 0 .147.05.176ZM42.74 1.125l-.01.05.137.048c0-.098-.078-.049-.127-.098ZM31.957 1.155v.029h.02c.01-.01-.01-.02-.02-.03ZM34.52 1.204v.039h.03c.01-.01.03-.01.02-.03-.01-.02-.03-.01-.05-.01ZM34.276 1.243c-.04.02-.03.068-.01.088.03-.02.098 0 .098-.059-.01-.049-.059-.02-.088-.03ZM43.141 1.292l.059.029-.04-.049-.019.02ZM43.581 1.429l.03.01v-.07c-.03 0-.06.03-.03.06ZM30.401 1.4c-.059-.05-.04.038-.059.058.02-.01.079 0 .059-.059ZM44.188 1.438l.02.079c.136-.01.234.117.371.137.05.01.108.02.137.029a.73.73 0 0 0 .421.147l-.117-.088c-.137-.03-.216-.118-.323-.128-.02-.02.01-.029.01-.048a.722.722 0 0 0-.206 0c0-.147-.196-.079-.244-.177l-.01.069c-.02.03-.059.01-.059-.02ZM29.932 1.546l-.02-.03.02.04v-.01ZM29.853 1.605c-.039-.01-.068.039-.039.068a.21.21 0 0 1 .04-.068ZM29.677 1.742c.01-.02.04-.03.03-.059-.03-.02-.108-.01-.089.04.02.009.03.019.059.019ZM29.872 1.732c.02-.02.04-.03.04-.059-.02 0-.079.04-.04.059ZM29.56 1.83c.029-.03.01-.069-.02-.079l-.039.04c.03.02.04.049.059.039ZM29.765 1.761h-.03l.03.02v-.02ZM29.462 1.85c-.01-.01.01-.03-.01-.04-.04.01-.059-.039-.088 0l.058.078.04-.039ZM30.391 1.85c0 .019.02.019.03.019.01-.02.039-.03.039-.05-.03-.009-.069.001-.069.03ZM45.176 1.879l-.029.049c.03.01.049.02.078.029-.02-.04-.02-.078-.049-.078ZM29.433 1.928l.039.029c.02 0 .039-.03.039-.059-.049.01-.059-.01-.078.03ZM29.374 2.035c.02 0 .03-.02.04-.03-.06-.019.038-.117-.06-.107-.01.059-.039.098.02.137ZM45.313 1.918c0-.02-.02-.02-.03-.02l.03.02ZM29.09 1.986c-.02.01-.069.01-.059.05h.04c.009-.02.029-.03.019-.05ZM28.21 2.779l.136-.088c-.039-.118.117-.05.137-.137.166-.059.264-.176.411-.274.01-.137.206-.118.294-.176-.069-.03-.108 0-.157-.04-.03.118-.156.06-.225.128-.03-.05-.059-.01-.088.02-.02.087-.166.058-.147.185-.108-.01-.147.157-.244.088-.098.02 0 .108-.03.157-.078-.059-.078.049-.137.03-.02.058.04.068.05.107ZM29.256 2.094c-.029-.02-.039 0-.049.02h.03c.01 0 .03-.02.02-.02ZM27.26 3.855c.069-.147-.078-.44.127-.47.137-.156.343-.185.47-.352-.02-.058.05-.058.069-.068.049-.088.127-.069.215-.137 0-.069-.088-.118-.059-.176-.01.01-.01.02-.01.01 0 .058-.068.097-.107.087-.088.04-.166.128-.255.196-.088-.049-.117.118-.195.059-.04-.03.02-.049.02-.078-.05.088-.167.068-.236.146-.039-.303-.02-.626-.029-.949l-.03-.049c-.038.578-.029 1.184-.019 1.771h.04v.01ZM20.812 2.495c.166.108.362.206.548.284.059 0 .078.108.137.039.196.117.391.225.597.284l.02.049c.156.01.273.137.41.215a.306.306 0 0 1 .274.137c.137-.01.245.117.372.137.206.078.401.176.607.284.107-.059.137.117.264.098.049.048.137 0 .166.078.118-.02.176.137.294.068-.02-.039-.02-.078-.05-.117-.077-.01-.146-.088-.224-.059a1.24 1.24 0 0 0-.382-.176c-.098-.078-.205-.04-.284-.156-.293-.108-.567-.265-.85-.411-.226-.05-.382-.294-.617-.323a5.553 5.553 0 0 0-.852-.5l-.039.07-.088-.089.04-.02c-.069-.068-.177-.068-.226-.156-.048.03-.088 0-.107-.04-.069-.068-.078.05-.098.089l.088-.02c.01.01.04.02.03.04-.07.029-.186-.03-.167.107.01.059.069.098.137.088ZM28.023 3.513c.01 0 .03.01.03-.01s.03-.059-.02-.059l-.01.069ZM24.638 4.198h-.03l.03.02v-.02ZM37.877 5c-.04-.01-.05.02-.05.04.04.009.04-.01.05-.04ZM37.886 5.049c-.02.098-.088-.049-.137.04.04.048-.039.087.02.126.039.059.098 0 .137 0 .039-.039.02-.117-.02-.166ZM30.059 5.147h.02c.009 0 .009 0 .009-.01 0-.02-.02-.02-.03-.02v.03ZM37.798 6.986c.01 0 .03.01.04-.01.01-.42.048-.949 0-1.399h-.03l-.01 1.41ZM37.045 6.898h.03c.019-.323 0-.655.019-.988l-.04-.02c-.038.186-.038.421 0 .607a.922.922 0 0 0-.009.401ZM32.73 6.184c0-.02 0-.03-.01-.04l.01.04ZM25.92 6.967c.02-.01.02-.03.02-.04-.01 0-.05.03-.02.04ZM35.098 6.996c-.02.03.039.059.068.059.02-.02.04-.059.05-.088-.07-.088-.04.058-.118.03ZM35.43 7.025c-.01-.01-.039 0-.049 0-.02.03.05.03.05 0ZM35.744 7.182c.01.01.039-.01.039-.01l-.04-.039v.049ZM35.89 7.202c.06.02.108.02.118-.03-.04 0-.108-.039-.117.03ZM36.037 7.31l.03.009c.01-.01.029-.02.029-.049-.03-.02-.088 0-.059.04ZM36.155 7.3c0-.01 0-.03-.01-.04l.01.04ZM36.243 7.26h-.03v.069c.01.03.03 0 .05-.01-.03-.01-.01-.04-.02-.059ZM45.92 8.64l-.03.147c.02.02.069 0 .059.049 0 .039.02.049.059.058.058-.46.029-1.066.02-1.546-.03.03-.07.04-.128.06-.03.068.049.048.049.107-.069.03.04.107-.059.098.108.088-.078.195.03.244-.03.05-.06.118.02.137-.108.088.048.157 0 .264l-.02-.01c-.02.01-.069-.019-.069.02.02.02.04.03.059.03.02.088.01.254.01.342ZM36.487 7.417c.02 0 .04-.02.03-.05-.02-.019-.05.04-.03.05ZM36.771 7.505l.04.01c.01-.02.048-.02.029-.05-.02-.048-.098.01-.069.04ZM37.27 7.515c.01 0 .01.01.02.01.01-.02.039-.06.02-.06l-.04.05ZM36.928 7.534c.098-.049.137.108.186.03-.03-.089-.118-.069-.167-.098-.03.01-.039.049-.02.068ZM37.554 7.642l.02.01c.01-.02.058-.05.038-.069a.17.17 0 0 0-.058.059ZM37.73 7.583h-.02l.02.04v-.04ZM41.986 7.69v-.029h-.02l.02.03ZM37.642 7.73h.02c.009-.01.019-.02.009-.03-.01-.019-.049 0-.03.03ZM38.22 7.77c.029-.02.038-.04.038-.07-.039-.01-.048.05-.039.069ZM31.703 7.75l.107.019v-.02c-.01-.039-.107-.058-.107 0ZM31.262 7.77h.04c.019 0 .048-.02.038-.04-.029 0-.068.02-.078.04ZM38.033 7.798V7.77c-.039-.039-.117-.02-.136.03.048.019.107.019.136 0ZM38.366 7.867h.04c.009 0 .009-.02.009-.03-.03-.019-.069 0-.049.03ZM38.523 7.877l-.05-.03v.05l.05-.02ZM39.139 8.072c.049-.01.098-.02.088-.088-.01 0-.01-.029-.03-.02-.01.089-.068.03-.127.05 0 .049.05.039.069.058ZM39.589 8.072c0 .03.039.088.078.069.03 0 .04-.04.03-.049l-.02.01c-.04.02-.059-.02-.088-.03ZM39.99 8.2c.01.02.04.01.05.01.019-.01.058-.01.048-.03-.03.01-.088-.01-.098.02ZM40.166 8.18c-.02-.01-.059 0-.059.02h.04c0-.01.029-.02.02-.02ZM40.323 8.18c-.03 0-.059.02-.108.01 0 .02.02.039.03.049l.078-.059ZM23.424 8.2c-.068.039.02.078.02.107 0-.039.03-.107-.02-.107ZM40.362 8.258c-.03.03 0 .069.03.079.028-.01.009-.04.019-.05-.02-.01-.03-.029-.05-.029ZM40.763 8.317c-.049 0-.147-.088-.205-.01.048.01.156.088.205.01ZM23.356 8.376c.068.029-.02.058.02.088.058 0 .029-.118.039-.127l-.059.039ZM30.969 8.973c.196-.137.391-.323.528-.5-.02-.048-.068 0-.107 0-.128-.068-.186.147-.314.167-.283.264-.547.567-.841.783 0 .029.04.068 0 .088l-.04-.04c-.097.098-.234.157-.293.265.05.068.098.098.167.039.303-.245.587-.528.9-.802Zm-.822.606c0 .01 0 .02-.01.02h-.02c-.01-.02.01-.02.03-.02ZM30.753 8.689c-.146-.01-.215.176-.332.264l-.079.02.03.049-.02.02c-.03.038-.03-.02-.068-.02-.235.205-.421.362-.646.596l-.03-.02c-.068.118-.215.138-.274.265.06.02.01.108.079.117.499-.44.998-.85 1.507-1.33-.02-.098-.157-.04-.167.039ZM42.466 8.67h.049v-.02c-.01-.02-.05-.01-.05.02ZM31.36 8.933c-.313.294-.675.558-.979.881-.097.098-.313.215-.352.372h.059c.303-.255.567-.44.841-.734l.01.01c.186-.196.43-.372.636-.607l-.039-.039c-.078.02-.108.117-.176.117ZM43.855 8.904c.01 0 .03-.01.02-.03h-.02v.03ZM46.83 9.237h-.04l.02.03c.02 0 .02-.02.02-.03ZM47.24 9.247h-.019l.02.039v-.04ZM47.456 9.315c-.01-.059-.088 0-.127-.049 0 .069.107.01.127.049ZM48.327 9.403c0-.01.01-.01.01-.02-.01-.01-.03-.039-.05-.029-.01.02 0 .069.04.05ZM49.433 9.374l-.01.02.02-.01-.01-.01ZM48.944 9.393c-.02-.02-.04 0-.05.02.02.01.04-.01.05-.02ZM41.986 10.049c.02-.059-.03-.049-.049-.098.137-.078-.098-.137.04-.215-.07-.098.029-.186-.05-.274-.048-.03-.146.059-.156-.059-.069-.049-.078.059-.098.098.03.656-.01 1.409 0 2.074-.049.108.03.167.137.167-.01.01-.01.029-.01.039.04.03.02.137.088.117-.039-.098.128-.098.04-.176.058-.098.048-.186.02-.293.028-.079-.03-.196 0-.294-.089-.088.068-.108 0-.186.117-.098-.03-.225.038-.333.03-.097-.117-.166-.01-.254-.02-.059.04-.166-.029-.186-.01-.059-.01-.107.04-.127ZM43.268 11.106l.186-.167c.147-.078.225-.186.352-.313.137-.098.304-.195.382-.372.108.04.117-.098.166-.127.147-.088.274-.215.372-.342.137 0 .137-.196.264-.167.02-.176-.264-.078-.362-.137-.254-.029-.577-.078-.822-.088-.039.04.03.03.04.059-.02.03-.05.02-.079.02v.039c.059.039.118.03.166.01l-.039-.079c.05-.01.098 0 .137 0 .05 0 .098.059.05.098l.146.04c.059-.01.088-.06.137-.08.03-.009.03.01.03.03.048.01.097.098.136.069.01-.04-.01-.04-.029-.069l.049-.049.078.137c.069.01.118-.078.167-.02-.098.138-.255.206-.343.363-.274.186-.558.509-.851.734-.108.098-.284.254-.392.4.03.02.05 0 .06.01ZM49.843 9.472c.01-.01 0-.02-.01-.02l-.01.01c-.029.01-.019-.03-.038-.04l.039.079.02-.03ZM50 9.51c.02-.01.01-.029.01-.048 0-.02-.02-.01-.03-.01-.038.02 0 .069.02.059ZM42.143 11.86V9.598c.01-.04-.01-.147-.069-.078v1.643c.059.206.04.47.01.695.02.01.04.04.059 0ZM51.888 9.677c-.02 0-.03 0-.039.01.01 0 .02-.01.04-.01ZM51.644 9.785l.03-.05.038.05c.02-.059.088-.079.137-.098-.088 0-.156-.118-.205.02l-.05-.07c-.038 0-.058.02-.068.05l.02.039-.02.02-.058-.05c-.079.118.146.01.176.089ZM52.231 9.785c.02 0 .04.01.049-.01.02-.069-.088-.01-.049-.069-.02-.01-.04.02-.04.03h.03c.01.01.01.03.01.049ZM51.83 9.785c.039-.01.117-.02.146-.05-.049 0-.146-.028-.146.05ZM52.525 9.736h-.03v.02c.01-.01.03-.01.03-.02ZM52.065 9.755c0-.01-.02-.01-.03-.01l.03.04v-.03ZM47.153 9.804h.02c.019 0 .01-.02.01-.03-.02 0-.03.01-.03.03Z" clip-rule="evenodd"/><path fill="#4A4A49" fill-rule="evenodd" d="m43.61 10.45.44-.42c.02-.089.196-.079.148-.187-.138.02-.265.216-.372.304-.264.166-.45.45-.705.675l-.068.01c-.069.098-.196.127-.225.215.02.03.049.059.078.03.205-.196.44-.392.665-.617h.04v-.01ZM36.546 10.812c.02.03.069 0 .088-.01 0-.068-.03-.156-.098-.195.05.078-.059.137.01.205ZM23.043 10.802l-.04-.03.02.04.02-.01ZM25.92 11.106c.02-.02.039-.02.03-.04-.02-.01-.06.02-.03.04ZM42.73 11.164c.02-.02.01-.058.02-.078-.03 0-.04.049-.02.078ZM41.037 11.83h.049v-.01c-.02-.03-.04.01-.049.01ZM42.25 12.104c.01.02.03.01.05.01.029.01.048-.03.058-.05-.039-.019-.107-.01-.107.04ZM48.777 12.681l-.049.186c.04.01.059.059.108.04.088-.04.058-.109.098-.167-.04-.079-.118-.02-.157-.059ZM35.89 12.74c-.205.195-.41.332-.596.538l-.118.049c-.186.225-.41.362-.616.558-.157.225-.42.44-.656.616.02.049-.068.078-.03.117l.177-.097c.538-.529 1.292-1.155 1.879-1.742.02-.02-.02-.02-.04-.04ZM41.076 13.072l-.48.43h-.048c-.274.294-.558.47-.812.784-.04.029-.118.02-.137.088l.068.03c.108-.07.215-.206.352-.255.294-.352.617-.548.92-.861.02-.108.166-.069.196-.177 0-.019-.04-.019-.059-.039ZM35.88 13.239v-.02h-.039l.04.02ZM35.773 13.337l.02.039c.029-.02.088-.01.088-.059-.05-.069-.089.01-.108.02ZM35.705 13.346c-.264.255-.568.529-.88.822-.05.128-.197.079-.206.206-.147.058-.206.215-.353.274-.137.264-.489.372-.606.616.244-.098.46-.372.685-.567.371-.323.724-.666 1.076-.979a.813.813 0 0 0 .333-.323c-.02-.01-.03-.039-.05-.049ZM26.213 13.474c.02 0 .04-.04.01-.04l-.039.06.01.009.02-.03Z" clip-rule="evenodd"/><path fill="#4A4A49" fill-rule="evenodd" d="M24.491 15.254c.607-.606 1.292-1.144 1.88-1.722.009-.146-.109.01-.148.02-.205-.059-.274.176-.44.284a4.182 4.182 0 0 1-.617.557c-.058.05-.078.157-.156.128 0 .048-.02.097-.059.078-.195.166-.352.293-.518.499.02.068.01.098-.03.137.03.03.069.01.088.02ZM40.724 13.718c-.205.255-.46.382-.695.636-.098.01-.137.108-.156.157-.137.068-.255.225-.382.342 0 .059.05.03.088.04L40 14.49c.049-.088.147-.059.147-.156.147-.04.186-.186.333-.235.097-.196.371-.245.41-.46-.078-.01-.097.098-.166.078ZM26.145 14.315v-.059l-.088-.01c-.137.02-.206.138-.264.235-.196.088-.343.255-.519.411-.088-.02-.069.108-.127.108-.157.059-.137.264-.333.274-.03.137-.196.166-.274.264.02-.01.02.01.03.02l-.069.03c-.03.028-.098.068-.078.136-.04.069-.098.04-.137.04.02.097-.128.146-.108.244h.069c.665-.597 1.3-1.145 1.898-1.693ZM39.618 14.452h-.02v.04c.01-.01.03-.02.02-.04ZM36.605 14.609h.02v-.04s-.01-.01-.02-.01v.05ZM28.709 15.802c.02 0 .039.01.039-.02 0-.009-.04 0-.04.02ZM54.794 15.88c-.019-.01-.029-.029-.048-.019v.04h.029c.01 0 .02-.01.02-.02ZM55.47 15.988c-.01-.01-.01-.01-.02-.01l.01.05c.01-.01.01-.03.01-.04ZM55.822 16.106v-.02c-.01-.03-.05 0-.03.02h.03ZM32.153 16.155c.02-.01 0-.03.02-.05h-.02v.05ZM31.644 16.203h.03c0-.01.01-.01.01-.029h-.04v.03ZM45.94 16.194c-.01.098-.05.244-.02.342.01.137-.03.225.02.352.01.294-.089.627.01.861l.058-.029c.068-.342.01-.734.02-1.105.01-.128-.02-.255.029-.392l-.118-.03ZM57.974 16.536c-.039-.02-.068.01-.088.01l.059.03c.01-.02.04-.02.03-.04ZM28.806 16.595v-.01h-.039l.04.01ZM57.897 16.673l.048.059c.06-.01.147.03.167-.03-.04-.117-.186-.088-.215-.029ZM58.229 16.644l-.088.107.039.03.049-.03c.058-.039-.02-.088 0-.107ZM46.605 16.693v.03l.02-.02c0-.01-.01-.02-.02-.01ZM28.014 16.732v.049h.01c-.01-.01.01-.05-.01-.05ZM58.336 16.761v.059h.02c0-.02.02-.03.01-.049 0-.02-.02-.01-.03-.01ZM58.415 16.79l.01.079c.03.01.039-.02.049-.03-.01-.029-.02-.048-.059-.048ZM27.642 16.83v.049h.01c0-.01.01-.05-.01-.05ZM58.738 16.879v.049h.01c.02-.02.02-.04.02-.04s-.02-.01-.03-.01ZM32.73 16.947l-.01.871c0 .069-.03.166.059.176l.02-.793c-.05-.088.058-.244-.07-.254ZM59.256 17.025c-.029.02-.02.069-.01.098.089-.03.157.118.235.02.04-.264-.137.039-.225-.118ZM26.39 17.084l-.01.03h.019c0-.02.01-.03-.01-.03ZM23.796 17.172v.04h.03v-.02c-.01-.01-.01-.02-.03-.02ZM25.988 17.201l.01.05c.02-.01.01-.03.01-.04 0-.01-.01-.01-.02-.01ZM28.073 17.652l-.069-.01a.484.484 0 0 0 .01.332c-.088.304.059.588-.04.881-.038.166.02.274.03.43h.03c.019-.078.088-.127.039-.195.039-.196.01-.43.02-.636-.01-.225.019-.538-.02-.802ZM23.493 17.77c.069.019.108.029.167.038v-.146c-.06 0-.137.068-.167.107ZM27.055 17.681c-.059.069-.02.176-.03.254.01.01.03.02.02.04h.03c-.03-.06.048-.137-.03-.177.078-.029.01-.097.01-.117ZM22.994 17.916h.02c.01-.01.03-.02.03-.04-.03 0-.05.03-.05.04ZM20.45 18.239c.01-.03-.02-.059-.059-.059-.039.049.04.078.059.059ZM20.127 18.317c0-.04-.04-.068-.059-.04 0 .04.03.07.06.04ZM27.035 18.346h.04c.01 0 .01-.02.01-.029-.02-.04-.089.01-.05.03ZM27.035 18.552h.02c.01-.01.02-.01.02-.03-.02-.019-.079 0-.04.03ZM27.035 18.826l.04-.118-.06-.029c-.01.04.04.088.02.147ZM27.016 18.855v.059c.01 0 .029.01.029-.01-.01-.02-.01-.039-.03-.049ZM18.992 19.188c.01-.05-.039-.098-.078-.118 0 .06-.088.088-.118.04-.01.01-.01.02-.01.039 0 0 .01.01.02.01l.01.01c.059.029.127.048.176.019ZM18.425 19.266c-.02-.02-.059.03-.03.03.01-.02.05-.01.03-.03ZM18.366 19.286c-.02-.03-.069.01-.03.03l.03-.03Z" clip-rule="evenodd"/><path fill="#D20A11" fill-rule="evenodd" d="M10.695 31.047c-.196-.568-.245-1.008-.245-2.358v-3.18c0-1.938-1.673-2.857-5.147-2.857-3.17 0-4.677.773-4.804 2.534h2.926c.117-.94.675-1.292 2.015-1.292 1.42 0 2.065.5 2.065 1.615v.323c-1.937.039-2.857.078-3.572.137C1.41 26.243 0 27.25 0 28.767c0 1.497 1.575 2.505 3.885 2.505 1.683 0 2.73-.391 3.786-1.38.02.44.079.695.215 1.155h2.809Zm-3.19-3.963c0 .812-.02 1.076-.147 1.478-.235.753-1.223 1.252-2.495 1.252-1.155 0-1.82-.44-1.82-1.233 0-1.076.969-1.487 3.6-1.487.167 0 .285 0 .578-.02h.284v.01Z" clip-rule="evenodd"/><path fill="#D20A11" d="M14.707 19.207h-3.014v11.84h3.014v-11.84Z"/><path fill="#D20A11" fill-rule="evenodd" d="M30.372 30.196c.978.763 1.967 1.076 3.258 1.076 2.926 0 4.912-1.8 4.912-4.472 0-2.524-1.84-4.158-4.697-4.158-1.575 0-2.573.372-3.473 1.33-.02-.479-.02-.626-.069-1.105H27.28c.02.372.068 1.135.068 1.428v9.815h3.024v-3.914Zm2.651-6.057c1.576.049 2.437 1.008 2.437 2.73 0 1.81-1.028 2.906-2.71 2.906-1.556 0-2.496-1.008-2.496-2.662 0-1.966.979-3.033 2.77-2.974Z" clip-rule="evenodd"/><path fill="#D20A11" d="M42.31 19.207h-3.024v11.84h3.023v-11.84Z"/><path fill="#D20A11" fill-rule="evenodd" d="M53.786 31.047c-.195-.568-.244-1.008-.244-2.358v-3.18c0-1.938-1.683-2.857-5.157-2.857-3.17 0-4.677.773-4.794 2.534h2.916c.127-.94.675-1.292 2.025-1.292 1.41 0 2.065.5 2.065 1.615v.323c-1.947.039-2.857.078-3.572.137-2.524.283-3.943 1.281-3.943 2.808 0 1.497 1.585 2.505 3.894 2.505 1.674 0 2.73-.392 3.787-1.38.02.44.069.695.206 1.155h2.817v-.01Zm-3.19-3.963c0 .812-.029 1.076-.136 1.478-.245.753-1.233 1.252-2.495 1.252-1.155 0-1.82-.44-1.82-1.233 0-1.076.959-1.487 3.59-1.487.167 0 .294 0 .578-.02h.284v.01ZM26.33 22.867h-3.023v4.295c0 .832-.078 1.331-.264 1.615-.362.607-1.233.988-2.162.988-1.41 0-2.182-.655-2.182-1.898v-5.01h-3.014v4.941c0 2.202 1.438 3.454 3.953 3.454 1.85 0 3.053-.508 3.68-1.595.019.5.097.93.234 1.37h3.024c-.167-.46-.235-.91-.235-1.595v-6.565h-.01ZM64.217 25.088c-.098-1.712-1.419-2.446-4.383-2.446-3.004 0-5.118 1.008-5.118 2.427 0 .743.529 1.389 1.438 1.79.627.264 1.087.382 2.79.685 2.396.411 2.807.597 2.807 1.252 0 .666-.87 1.106-2.162 1.106-1.36 0-1.967-.43-2.065-1.409H54.55v.303c0 1.566 1.78 2.486 4.804 2.486 3.288 0 5.333-1.028 5.333-2.662 0-.802-.43-1.399-1.321-1.82-.626-.313-1.077-.43-2.994-.782-2.427-.421-2.71-.548-2.71-1.145 0-.49.763-.852 1.839-.852 1.272 0 1.78.304 1.85 1.067h2.866ZM70.137 24.403h2.808v-1.526h-2.808V20.46l-2.926 1.125v1.292h-2.465v1.526h2.465v4.188c0 1.125.235 1.732.822 2.133.5.343 1.39.567 2.25.567.744 0 1.273-.048 2.682-.244v-1.429c-.47.079-.998.118-1.292.118-1.047 0-1.526-.421-1.526-1.37v-3.963h-.01ZM74.403 19.726c-.763 0-1.39.616-1.39 1.38 0 .763.627 1.38 1.39 1.38.753 0 1.37-.617 1.37-1.38 0-.764-.617-1.38-1.37-1.38Zm0 2.534a1.159 1.159 0 0 1-1.164-1.154c0-.646.508-1.155 1.164-1.155.636 0 1.145.509 1.145 1.155 0 .636-.509 1.154-1.145 1.154Z" clip-rule="evenodd"/><path fill="#D20A11" fill-rule="evenodd" d="M74.99 21.419c-.03-.206-.068-.255-.225-.313.206-.098.274-.186.274-.372 0-.255-.196-.401-.567-.401h-.685v1.526h.352v-.616h.284c.146 0 .195.039.215.186l.02.176c.019.146.029.186.058.244h.372c-.049-.088-.049-.078-.078-.274l-.02-.156Zm-.597-.43h-.254v-.402h.264c.186 0 .264.059.264.196 0 .146-.098.205-.274.205Z" clip-rule="evenodd"/></svg>