<svg xmlns="http://www.w3.org/2000/svg" width="125" height="40" fill="none"><path fill="#004891" d="M15.252.083C6.992.083.295 6.778.295 15.039s6.696 14.957 14.957 14.957c8.26 0 14.957-6.696 14.957-14.957 0-8.26-6.696-14.956-14.957-14.956Zm0 27.473c-5.509 0-10.183-3.56-11.857-8.504a10.956 10.956 0 0 0 10.03 6.505c5.966 0 10.731-4.64 10.87-10.522h-9.043c-.07 3.421-2.778 6.087-6.217 6.087a6.297 6.297 0 0 1-6.296-6.174h-.004c.047-6.874 5.634-12.43 12.517-12.43 6.917 0 12.522 5.604 12.522 12.521 0 6.913-5.605 12.518-12.522 12.518ZM38.026 23.065c-2.652-1.96-3.94-5.57-3.94-8.104 0-5.648 4.584-10.065 10.227-10.23 4.57-.135 7.478 3.247 7.478 3.247.487.461.492 1.244.03 1.73-.46.488-1.23.505-1.717.04v.004a7.788 7.788 0 1 0 1.86 6.652h-5.76a1.213 1.213 0 0 1 0-2.426h7.1c1.274.109 1.209 1.222 1.209 1.222-.135 5.53-4.396 9.983-9.96 9.983 0 .013-3.41.19-6.527-2.118ZM56.352 23.787c0 .67.544 1.213 1.213 1.213h6.461s1.104.048 1.209-1.213c0-.67-.544-1.213-1.213-1.213l-5.248-.004v-6.157h5.239s1.13.03 1.217-1.209c0-.67-.543-1.213-1.213-1.213l-5.239-.004.004-6.626h5.235s1.135.009 1.226-1.218c.048-.67-.56-1.217-1.217-1.217h-6.461c-.67 0-1.217.544-1.217 1.213l.004 17.718v-.07ZM110.335 9.743l11.017 14.753c.17.243.465.46.978.491 1.283-.03 1.213-1.213 1.213-1.213l-.008-10.27h.004V5.952s.009-1.135-1.213-1.213c-1.283.026-1.209 1.213-1.209 1.213l-.004 11.009-.022 3.148-11.074-14.813s-.465-.366-.913-.392c-1.282.026-1.213 1.213-1.213 1.213l-.004 10.248V23.978s-.009 1.135 1.213 1.213c1.282-.03 1.213-1.213 1.213-1.213l.004-10.248v.005-4.018M105.991 23.604l-5.796-17.556c-.013-.035-.052-.109-.052-.109-.295-.691-.978-1.217-1.787-1.217-.843 0-1.56.57-1.834 1.308l-5.496 16.548h-4.809l.005-16.452s-.01-1.156-1.213-1.209c-.666-.026-1.205.535-1.214 1.196l.005 17.704s0 1.092 1.213 1.179h6.856-.004c.535 0 1.017-.34 1.178-.818L94.8 18.84h7.061l1.839 5.548s.039.104.069.16c.205.383.609.644 1.07.644.669 0 1.209-.539 1.209-1.208.004-.13-.057-.379-.057-.379Zm-10.37-7.174 2.705-8.26 2.748 8.252-5.453.008ZM81.926 23.604 76.13 6.052a1.375 1.375 0 0 0-.052-.109c-.295-.69-.978-1.217-1.787-1.217-.843 0-1.56.57-1.834 1.309l-5.766 17.37.005-.022c-.04.121-.061.247-.061.382 0 .674.548 1.183 1.217 1.218.757.043 1.144-.8 1.144-.8l1.734-5.335h7.061l1.84 5.548s.039.104.069.16c.204.383.609.644 1.07.644.67 0 1.208-.54 1.208-1.209.009-.139-.052-.387-.052-.387Zm-10.37-7.174 2.705-8.26 2.748 8.252-5.453.008Z"/><path fill="#55565B" d="M35.039 35.109v4.665h-.852v-4.665h.852ZM36.682 39.774v-4.665h.97l1.204 2c.313.517.583 1.06.796 1.565h.013a20.864 20.864 0 0 1-.078-1.94V35.11h.786v4.665h-.878l-1.217-2.057a16.1 16.1 0 0 1-.84-1.604l-.021.009c.035.604.043 1.217.043 1.987v1.67h-.778v-.005ZM42.034 39.774v-4.665h.97l1.204 2c.313.517.583 1.06.796 1.565h.013a20.862 20.862 0 0 1-.079-1.94V35.11h.787v4.665h-.878l-1.217-2.057a16.12 16.12 0 0 1-.84-1.604l-.021.009c.035.604.043 1.217.043 1.987v1.67h-.778v-.005ZM51.539 37.391c0 1.566-.948 2.457-2.235 2.457-1.317 0-2.148-1.005-2.148-2.374 0-1.435.9-2.443 2.218-2.443 1.36 0 2.165 1.03 2.165 2.36Zm-3.483.07c0 .948.479 1.709 1.296 1.709.822 0 1.287-.77 1.287-1.744 0-.878-.435-1.717-1.287-1.717-.844 0-1.296.791-1.296 1.752ZM53.856 39.774l-1.509-4.665h.926l.635 2.117c.178.587.33 1.135.457 1.704h.013c.126-.552.29-1.121.478-1.687l.678-2.13h.909l-1.613 4.665h-.974v-.004ZM58.204 38.452l-.4 1.322h-.878l1.495-4.665h1.087l1.518 4.665h-.913l-.422-1.322h-1.487Zm1.34-.643-.366-1.148c-.091-.283-.165-.6-.235-.874h-.013c-.07.27-.139.596-.222.874l-.36 1.148h1.195ZM62.756 35.822h-1.33v-.713h3.526v.713h-1.344v3.952h-.852v-3.952ZM67.004 35.109v4.665h-.852v-4.665h.852ZM72.804 37.391c0 1.566-.948 2.457-2.235 2.457-1.317 0-2.148-1.005-2.148-2.374 0-1.435.9-2.443 2.218-2.443 1.365 0 2.165 1.03 2.165 2.36Zm-3.483.07c0 .948.479 1.709 1.296 1.709.822 0 1.287-.77 1.287-1.744 0-.878-.435-1.717-1.287-1.717-.843 0-1.296.791-1.296 1.752ZM74.226 39.774v-4.665h.97l1.204 2c.313.517.582 1.06.795 1.565h.013a20.862 20.862 0 0 1-.078-1.94V35.11h.791v4.665h-.878l-1.217-2.057c-.3-.504-.61-1.078-.84-1.604l-.021.009c.034.604.043 1.217.043 1.987v1.67h-.782v-.005ZM85.66 37.87c-.025-.605-.06-1.33-.056-1.966h-.022a25.453 25.453 0 0 1-.552 1.792l-.678 2.021h-.657l-.621-1.995a22.002 22.002 0 0 1-.47-1.822h-.013c-.022.617-.048 1.357-.083 1.996l-.104 1.878h-.796l.313-4.665h1.122l.609 1.878c.165.548.313 1.1.43 1.622h.022c.126-.505.283-1.079.465-1.626l.644-1.87h1.108l.27 4.665h-.83l-.1-1.908ZM88.982 35.109v4.665h-.852v-4.665h.852ZM91.504 35.822h-1.33v-.713h3.525v.713h-1.343v3.952h-.852v-3.952ZM97.043 38.848c.278.16.691.296 1.13.296.548 0 .852-.257.852-.635 0-.352-.234-.561-.83-.774-.77-.279-1.26-.687-1.26-1.357 0-.76.634-1.343 1.647-1.343.504 0 .878.109 1.122.235l-.209.686a1.953 1.953 0 0 0-.926-.221c-.54 0-.774.291-.774.56 0 .361.27.527.891.77.81.305 1.205.713 1.205 1.383 0 .748-.57 1.404-1.774 1.404-.492 0-1.005-.143-1.261-.295l.187-.71ZM102.361 39.774v-1.948l-1.474-2.722h.969l.561 1.2c.161.348.278.61.4.926h.013c.118-.295.248-.586.409-.926l.561-1.2h.961l-1.553 2.7v1.966h-.847v.004ZM105.765 38.848c.278.16.691.296 1.13.296.548 0 .852-.257.852-.635 0-.352-.235-.561-.83-.774-.77-.279-1.261-.687-1.261-1.357 0-.76.635-1.343 1.648-1.343.504 0 .878.109 1.121.235l-.208.686a1.955 1.955 0 0 0-.926-.221c-.539 0-.774.291-.774.56 0 .361.269.527.891.77.809.305 1.204.713 1.204 1.383 0 .748-.569 1.404-1.773 1.404-.492 0-1.005-.143-1.261-.295l.187-.71ZM110.939 35.822h-1.331v-.713h3.526v.713h-1.343v3.952h-.852v-3.952ZM116.948 37.704h-1.757v1.37h1.965v.7h-2.817v-4.665h2.713v.7h-1.861v1.204h1.757v.691ZM122.504 37.87c-.026-.605-.061-1.33-.057-1.966h-.021a25.572 25.572 0 0 1-.553 1.792l-.678 2.021h-.656l-.622-1.995a22.207 22.207 0 0 1-.47-1.822h-.013c-.021.617-.048 1.357-.082 1.996l-.105 1.878h-.795l.313-4.665h1.121l.609 1.878c.165.548.313 1.1.431 1.622h.021c.126-.505.283-1.079.466-1.626l.643-1.87h1.109l.269 4.665h-.83l-.1-1.908Z"/></svg>