<svg width="184" height="40" viewBox="0 0 184 40" fill="none" xmlns="http://www.w3.org/2000/svg">
<g clip-path="url(#clip0_56_111)">
<path d="M3.13222 32.8859H2.37159L1.47674 37.8523L0.984568 32.8859H0.179199L0.984568 39.6868H1.87942L2.77428 34.5414L3.66913 39.6868H4.56399L5.36936 32.8859H4.56399L4.02707 37.8523L3.13222 32.8859ZM10.47 33.6465H12.0808V38.9262H10.47V39.6868H14.5864V38.9262H12.9756V33.6465H14.5864V32.8859H10.47V33.6465ZM24.564 32.8859H23.6691V37.9418L21.0293 32.8859H20.1345V39.6868H21.0293V34.5861L23.7139 39.6868H24.6087V32.8859H24.564ZM31.6333 39.6868C32.1255 39.6868 32.5282 39.5973 32.8861 39.4631C33.2441 39.3289 33.5573 39.1051 33.8257 38.8367C34.0942 38.5682 34.2732 38.2103 34.4074 37.8523C34.5416 37.4497 34.6311 37.047 34.6311 36.5548V36.0626C34.6311 35.6152 34.5416 35.1678 34.4074 34.7651C34.2732 34.3624 34.0942 34.0492 33.8257 33.7808C33.5573 33.5123 33.2441 33.2886 32.8861 33.1544C32.5282 33.0201 32.0808 32.9306 31.6333 32.9306H30.0673V39.7315H31.6333V39.6868ZM31.6333 33.6018C31.9913 33.6018 32.3045 33.6913 32.5729 33.7808C32.8414 33.915 33.0651 34.094 33.2441 34.2729C33.423 34.4966 33.5573 34.7651 33.6468 35.0336C33.7362 35.3468 33.781 35.66 33.781 35.9732V36.4653C33.781 36.8233 33.7362 37.1365 33.6468 37.4497C33.5573 37.7629 33.423 37.9866 33.2441 38.2103C33.0651 38.434 32.8414 38.613 32.5729 38.7472C32.3045 38.8814 31.9913 38.9262 31.6333 38.9262H30.9175V33.557H31.6333V33.6018ZM44.4298 35.8837C44.4298 35.66 44.385 35.3915 44.385 35.1678C44.3403 34.8993 44.2955 34.6756 44.206 34.4519C44.1166 34.2282 44.0271 34.0045 43.8928 33.8255C43.7586 33.6465 43.6244 33.4676 43.4454 33.2886C43.2664 33.1544 43.0875 33.0201 42.8638 32.9306C42.6401 32.8412 42.3716 32.7964 42.1031 32.7964C41.8347 32.7964 41.5662 32.8412 41.3425 32.9306C41.1188 33.0201 40.8951 33.1544 40.7609 33.2886C40.5819 33.4228 40.4477 33.6018 40.3134 33.8255C40.1792 34.0045 40.0897 34.2282 40.0002 34.4519C39.9107 34.6756 39.866 34.8993 39.8213 35.1678C39.7765 35.4362 39.7765 35.66 39.7765 35.8837V36.689C39.7765 36.9127 39.8213 37.1812 39.8213 37.4049C39.866 37.6734 39.9107 37.8971 40.0002 38.1208C40.0897 38.3445 40.1792 38.5682 40.3134 38.7472C40.4477 38.9262 40.5819 39.1051 40.7609 39.2841C40.9398 39.4183 41.1188 39.5526 41.3425 39.6421C41.5662 39.7315 41.8347 39.7763 42.1031 39.7763C42.3716 39.7763 42.6401 39.7315 42.8638 39.6421C43.0875 39.5526 43.3112 39.4183 43.4454 39.2841C43.6244 39.1499 43.7586 38.9709 43.8928 38.7472C44.0271 38.5682 44.1166 38.3445 44.206 38.1208C44.2955 37.8971 44.3403 37.6734 44.385 37.4049C44.4298 37.1365 44.4298 36.9127 44.4298 36.689V35.8837ZM43.5796 36.689C43.5796 36.868 43.5796 37.0022 43.5349 37.1812C43.5349 37.3602 43.4902 37.5391 43.4454 37.7181C43.4007 37.8971 43.3559 38.0761 43.2664 38.2103C43.177 38.3893 43.0875 38.5235 42.998 38.613C42.9085 38.7472 42.7743 38.8367 42.5953 38.8814C42.4611 38.9709 42.2821 38.9709 42.0584 38.9709C41.8347 38.9709 41.7005 38.9262 41.5215 38.8814C41.3873 38.7919 41.253 38.7025 41.1188 38.613C40.9846 38.4787 40.8951 38.3445 40.8503 38.2103C40.7609 38.0313 40.7161 37.8971 40.6714 37.7181C40.6266 37.5391 40.5819 37.3602 40.5819 37.1812C40.5819 37.0022 40.5371 36.8233 40.5371 36.689V35.8837C40.5371 35.7047 40.5371 35.5705 40.5819 35.3915C40.5819 35.2125 40.6266 35.0336 40.6714 34.8546C40.7161 34.6756 40.7609 34.4966 40.8503 34.3624C40.9398 34.1834 41.0293 34.0492 41.1188 33.9597C41.253 33.8255 41.3425 33.736 41.5215 33.6913C41.6557 33.6018 41.8347 33.6018 42.0584 33.6018C42.2821 33.6018 42.4163 33.6465 42.5953 33.6913C42.7295 33.7808 42.8638 33.8702 42.998 33.9597C43.1322 34.094 43.2217 34.2282 43.2664 34.3624C43.3559 34.5414 43.4007 34.6756 43.4454 34.8546C43.4902 35.0336 43.5349 35.2125 43.5349 35.3915C43.5349 35.5705 43.5796 35.7494 43.5796 35.8837V36.689ZM52.3492 32.8859H51.5886L50.6937 37.8523L50.1568 32.8859H49.3515L50.1568 39.6868H51.0517L51.9465 34.5414L52.8414 39.6868H53.7362L54.5416 32.8859H53.7362L53.1993 37.8523L52.3492 32.8859ZM64.564 38.6577C64.6535 38.8814 64.7877 39.0604 64.9667 39.2394C65.1456 39.4183 65.3694 39.5078 65.5931 39.5973C65.8615 39.6868 66.13 39.7315 66.4432 39.7315C66.7564 39.7315 67.0248 39.6868 67.338 39.5973C67.6065 39.5078 67.875 39.3289 68.0987 39.1499L68.5014 39.6421H69.5304L68.6803 38.5235C68.904 38.255 69.083 37.9418 69.1725 37.5839C69.3067 37.2259 69.3515 36.868 69.3515 36.4653H68.5908C68.5908 36.7338 68.5461 37.0022 68.5014 37.2259C68.4566 37.4497 68.3671 37.6734 68.2329 37.8971L66.8011 36.0179L67.2486 35.66C67.3828 35.5705 67.517 35.4362 67.6512 35.3468C67.7855 35.2573 67.8749 35.123 67.9644 34.9888C68.0539 34.8546 68.0987 34.7651 68.1434 34.5861C68.1882 34.4519 68.2329 34.3177 68.2329 34.1387C68.2329 33.9597 68.1882 33.7808 68.1434 33.6018C68.0539 33.4228 67.9644 33.2886 67.8302 33.1544C67.696 33.0201 67.5618 32.9306 67.3828 32.8412C67.2038 32.7517 66.9801 32.7069 66.8011 32.7069C66.5327 32.7069 66.309 32.7517 66.13 32.7964C65.9063 32.8859 65.7273 32.9754 65.5931 33.1096C65.4588 33.2438 65.3246 33.4228 65.2351 33.6018C65.1456 33.8255 65.1009 34.0492 65.1009 34.3177C65.1009 34.5861 65.1456 34.8546 65.2799 35.123C65.4141 35.3915 65.5483 35.66 65.772 35.9284C65.5931 36.0626 65.4141 36.1969 65.2351 36.3311C65.1009 36.4653 64.9667 36.5995 64.8324 36.7785C64.6982 36.9127 64.6535 37.0917 64.564 37.2707C64.5192 37.4497 64.4745 37.6286 64.4745 37.8523C64.4298 38.2103 64.4745 38.434 64.564 38.6577ZM65.951 38.9709C65.8168 38.9262 65.6826 38.8367 65.5931 38.7472C65.5036 38.6577 65.4141 38.5235 65.3694 38.3893C65.3246 38.255 65.2799 38.1208 65.2799 37.9418C65.2799 37.8971 65.2799 37.8076 65.3246 37.7181C65.3246 37.6286 65.3694 37.5391 65.4141 37.4049C65.4588 37.3154 65.5483 37.1812 65.6378 37.047C65.7273 36.9127 65.8615 36.8233 65.9958 36.689L66.13 36.5548L67.6512 38.5682C67.4723 38.7025 67.2933 38.8367 67.0696 38.9262C66.8459 39.0157 66.6669 39.0604 66.4432 39.0604C66.2642 39.0604 66.0852 39.0604 65.951 38.9709ZM65.951 34.0492C65.9958 33.9597 66.0405 33.8255 66.0852 33.736C66.13 33.6465 66.2195 33.6018 66.3537 33.557C66.4432 33.5123 66.5774 33.4676 66.7116 33.4676C66.8011 33.4676 66.8906 33.4676 66.9801 33.5123C67.0696 33.557 67.1143 33.6018 67.2038 33.6913C67.2486 33.7808 67.2933 33.8255 67.338 33.915C67.3828 34.0045 67.3828 34.094 67.3828 34.1834C67.3828 34.2729 67.3828 34.3177 67.3828 34.4072C67.3828 34.4966 67.338 34.5414 67.2933 34.6309C67.2486 34.7204 67.2038 34.7651 67.1591 34.8546C67.1143 34.9441 67.0248 34.9888 66.9354 35.0783L66.3984 35.5257C66.2642 35.302 66.13 35.123 66.0852 34.9441C65.9958 34.7651 65.951 34.5861 65.951 34.4072C65.8615 34.2729 65.9063 34.1834 65.951 34.0492ZM80.8951 39.6868C81.3873 39.6868 81.7899 39.5973 82.1479 39.4631C82.5058 39.3289 82.819 39.1051 83.0875 38.8367C83.3559 38.5682 83.5349 38.2103 83.6691 37.8523C83.8034 37.4497 83.8929 37.047 83.8929 36.5548V36.0626C83.8929 35.6152 83.8034 35.1678 83.6691 34.7651C83.5349 34.3624 83.3559 34.0492 83.0875 33.7808C82.819 33.5123 82.5058 33.2886 82.1479 33.1544C81.7899 33.0201 81.3425 32.9306 80.8951 32.9306H79.3291V39.7315H80.8951V39.6868ZM80.8951 33.6018C81.253 33.6018 81.5662 33.6913 81.8347 33.7808C82.1031 33.915 82.3269 34.094 82.5058 34.2729C82.6848 34.4966 82.819 34.7651 82.9085 35.0336C82.998 35.3468 83.0427 35.66 83.0427 35.9732V36.4653C83.0427 36.8233 82.998 37.1365 82.9085 37.4497C82.819 37.7629 82.6848 37.9866 82.5058 38.2103C82.3269 38.434 82.1031 38.613 81.8347 38.7472C81.5662 38.8814 81.253 38.9262 80.8951 38.9262H80.1792V33.557H80.8951V33.6018ZM93.5125 35.8837C93.5125 35.66 93.4678 35.3915 93.4678 35.1678C93.423 34.8993 93.3783 34.6756 93.2888 34.4519C93.1993 34.2282 93.1099 34.0045 92.9756 33.8255C92.8414 33.6465 92.7072 33.4676 92.5282 33.2886C92.3492 33.1544 92.1703 33.0201 91.9465 32.9306C91.7228 32.8412 91.4544 32.7964 91.1859 32.7964C90.9175 32.7964 90.649 32.8412 90.4253 32.9306C90.2016 33.0201 89.9779 33.1544 89.8436 33.2886C89.6647 33.4228 89.5304 33.6018 89.3962 33.8255C89.262 34.0045 89.1725 34.2282 89.083 34.4519C88.9935 34.6756 88.9488 34.8993 88.904 35.1678C88.8593 35.4362 88.8593 35.66 88.8593 35.8837V36.689C88.8593 36.9127 88.904 37.1812 88.904 37.4049C88.9488 37.6734 88.9935 37.8971 89.083 38.1208C89.1725 38.3445 89.262 38.5682 89.3962 38.7472C89.5304 38.9262 89.6647 39.1051 89.8436 39.2841C90.0226 39.4183 90.2016 39.5526 90.4253 39.6421C90.649 39.7315 90.9175 39.7763 91.1859 39.7763C91.4544 39.7763 91.7228 39.7315 91.9465 39.6421C92.1703 39.5526 92.394 39.4183 92.5282 39.2841C92.7072 39.1499 92.8414 38.9709 92.9756 38.7472C93.1099 38.5682 93.1993 38.3445 93.2888 38.1208C93.3783 37.8971 93.423 37.6734 93.4678 37.4049C93.5125 37.1365 93.5125 36.9127 93.5125 36.689V35.8837ZM92.6624 36.689C92.6624 36.868 92.6624 37.0022 92.6177 37.1812C92.6177 37.3602 92.5729 37.5391 92.5282 37.7181C92.4835 37.8971 92.4387 38.0761 92.3492 38.2103C92.2597 38.3893 92.1703 38.5235 92.0808 38.613C91.9913 38.7472 91.8571 38.8367 91.6781 38.8814C91.5439 38.9709 91.3649 38.9709 91.1412 38.9709C90.9175 38.9709 90.7832 38.9262 90.6043 38.8814C90.47 38.7919 90.3358 38.7025 90.2016 38.613C90.0674 38.4787 89.9779 38.3445 89.9331 38.2103C89.8436 38.0313 89.7989 37.8971 89.7542 37.7181C89.7094 37.5391 89.6647 37.3602 89.6647 37.1812C89.6647 37.0022 89.6199 36.8233 89.6199 36.689V35.8837C89.6199 35.7047 89.6199 35.5705 89.6647 35.3915C89.6647 35.2125 89.7094 35.0336 89.7542 34.8546C89.7989 34.6756 89.8436 34.4966 89.9331 34.3624C90.0226 34.1834 90.1121 34.0492 90.2016 33.9597C90.3358 33.8255 90.4253 33.736 90.6043 33.6913C90.7385 33.6018 90.9175 33.6018 91.1412 33.6018C91.3649 33.6018 91.4991 33.6465 91.6781 33.6913C91.8123 33.7808 91.9465 33.8702 92.0808 33.9597C92.215 34.094 92.3045 34.2282 92.3492 34.3624C92.4387 34.5414 92.4835 34.6756 92.5282 34.8546C92.5729 35.0336 92.6177 35.2125 92.6177 35.3915C92.6177 35.5705 92.6624 35.7494 92.6624 35.8837V36.689ZM103.132 35.8837C103.132 35.66 103.087 35.3915 103.087 35.1678C103.043 34.8993 102.998 34.6756 102.909 34.4519C102.819 34.2282 102.73 34.0045 102.595 33.8255C102.461 33.6465 102.327 33.4676 102.148 33.2886C101.969 33.1544 101.79 33.0201 101.566 32.9306C101.343 32.8412 101.074 32.7964 100.806 32.7964C100.537 32.7964 100.269 32.8412 100.045 32.9306C99.8213 33.0201 99.5975 33.1544 99.4633 33.2886C99.2843 33.4228 99.1501 33.6018 99.0159 33.8255C98.8817 34.0045 98.7922 34.2282 98.7027 34.4519C98.6132 34.6756 98.5685 34.8993 98.5237 35.1678C98.479 35.4362 98.479 35.66 98.479 35.8837V36.689C98.479 36.9127 98.5237 37.1812 98.5237 37.4049C98.5685 37.6734 98.6132 37.8971 98.7027 38.1208C98.7922 38.3445 98.8817 38.5682 99.0159 38.7472C99.1501 38.9262 99.2843 39.1051 99.4633 39.2841C99.6423 39.4183 99.8213 39.5526 100.045 39.6421C100.269 39.7315 100.537 39.7763 100.806 39.7763C101.074 39.7763 101.343 39.7315 101.566 39.6421C101.79 39.5526 102.014 39.4183 102.148 39.2841C102.327 39.1499 102.461 38.9709 102.595 38.7472C102.73 38.5682 102.819 38.3445 102.909 38.1208C102.998 37.8971 103.043 37.6734 103.087 37.4049C103.132 37.1365 103.132 36.9127 103.132 36.689V35.8837ZM102.282 36.689C102.282 36.868 102.282 37.0022 102.237 37.1812C102.237 37.3602 102.193 37.5391 102.148 37.7181C102.103 37.8971 102.058 38.0761 101.969 38.2103C101.879 38.3893 101.79 38.5235 101.7 38.613C101.611 38.7472 101.477 38.8367 101.298 38.8814C101.164 38.9709 100.985 38.9709 100.761 38.9709C100.537 38.9709 100.403 38.9262 100.224 38.8814C100.09 38.7919 99.9555 38.7025 99.8213 38.613C99.687 38.4787 99.5975 38.3445 99.5528 38.2103C99.4633 38.0313 99.4186 37.8971 99.3738 37.7181C99.3291 37.5391 99.2843 37.3602 99.2843 37.1812C99.2843 37.0022 99.2396 36.8233 99.2396 36.689V35.8837C99.2396 35.7047 99.2396 35.5705 99.2843 35.3915C99.2843 35.2125 99.3291 35.0336 99.3738 34.8546C99.4186 34.6756 99.4633 34.4966 99.5528 34.3624C99.6423 34.1834 99.7318 34.0492 99.8213 33.9597C99.9555 33.8255 100.045 33.736 100.224 33.6913C100.358 33.6018 100.537 33.6018 100.761 33.6018C100.985 33.6018 101.119 33.6465 101.298 33.6913C101.432 33.7808 101.566 33.8702 101.7 33.9597C101.835 34.094 101.924 34.2282 101.969 34.3624C102.058 34.5414 102.103 34.6756 102.148 34.8546C102.193 35.0336 102.237 35.2125 102.237 35.3915C102.237 35.5705 102.282 35.7494 102.282 35.8837V36.689ZM111.947 39.6868H112.841V39.6421L111.41 36.7338C111.589 36.6443 111.768 36.5548 111.902 36.4206C112.036 36.2864 112.17 36.1521 112.304 36.0179C112.439 35.8837 112.483 35.7047 112.573 35.5257C112.618 35.3468 112.662 35.123 112.662 34.8993C112.662 34.5414 112.618 34.2729 112.483 34.0045C112.349 33.736 112.215 33.557 111.991 33.3781C111.768 33.1991 111.544 33.0649 111.275 33.0201C111.007 32.9306 110.694 32.8859 110.381 32.8859H108.367V39.6868H109.217V36.9127H110.56L111.947 39.6868ZM109.262 33.6018H110.381C110.604 33.6018 110.783 33.6465 110.962 33.6913C111.141 33.736 111.275 33.8255 111.41 33.9597C111.544 34.0492 111.633 34.2282 111.723 34.3624C111.812 34.5414 111.812 34.7204 111.812 34.9441C111.812 35.1678 111.768 35.3468 111.678 35.481C111.589 35.66 111.499 35.7494 111.365 35.8837C111.231 35.9731 111.096 36.0626 110.917 36.1521C110.738 36.1969 110.56 36.2416 110.381 36.2416H109.217V33.6018H109.262ZM126.533 38.434C126.443 38.5682 126.354 38.7025 126.219 38.7919C126.085 38.8814 125.951 38.9262 125.772 38.9709C125.593 39.0157 125.459 39.0157 125.28 39.0157C125.056 39.0157 124.877 38.9709 124.698 38.9262C124.519 38.8814 124.34 38.7919 124.206 38.6577C124.072 38.5235 123.938 38.3893 123.848 38.255C123.759 38.0761 123.714 37.8971 123.669 37.6734H122.774C122.774 37.9866 122.864 38.2998 122.998 38.5235C123.132 38.7919 123.311 38.9709 123.535 39.1499C123.759 39.3289 124.027 39.4631 124.296 39.5526C124.564 39.6421 124.877 39.6868 125.19 39.6868C125.459 39.6868 125.727 39.6421 125.996 39.5526C126.264 39.4631 126.488 39.3736 126.712 39.1946C126.935 39.0604 127.114 38.8367 127.249 38.613C127.383 38.3893 127.472 38.1208 127.472 37.8076C127.472 37.5839 127.428 37.4049 127.383 37.2707C127.338 37.0917 127.249 36.9575 127.159 36.8233C127.07 36.689 126.935 36.5548 126.801 36.4653C126.667 36.3758 126.533 36.2416 126.354 36.1521C126.175 36.0626 126.04 35.9732 125.862 35.9284C125.683 35.8389 125.504 35.7942 125.369 35.7494C125.235 35.7047 125.056 35.66 124.877 35.5705C124.698 35.5257 124.564 35.4362 124.385 35.3468C124.251 35.2573 124.117 35.123 124.027 34.9888C123.938 34.8546 123.893 34.6756 123.893 34.4966C123.893 34.3177 123.938 34.1387 123.982 34.0045C124.072 33.8702 124.161 33.736 124.296 33.6465C124.43 33.557 124.564 33.4676 124.698 33.4228C124.877 33.3781 125.011 33.3333 125.19 33.3333C125.414 33.3333 125.593 33.3781 125.727 33.4228C125.906 33.4676 126.04 33.557 126.13 33.6913C126.264 33.8255 126.354 33.9597 126.398 34.094C126.488 34.2729 126.533 34.4519 126.533 34.6309H127.428C127.428 34.3177 127.338 34.0492 127.249 33.7808C127.114 33.5123 126.935 33.3333 126.756 33.1544C126.577 32.9754 126.309 32.8412 126.041 32.7517C125.772 32.6622 125.504 32.6174 125.19 32.6174C124.922 32.6174 124.653 32.6622 124.385 32.7517C124.117 32.8412 123.893 32.9754 123.669 33.1096C123.445 33.2886 123.311 33.4676 123.177 33.6913C123.043 33.915 122.998 34.1834 122.998 34.4966C122.998 34.8098 123.043 35.0336 123.177 35.2573C123.311 35.481 123.49 35.66 123.669 35.8389C123.893 36.0179 124.117 36.1521 124.34 36.2416C124.609 36.3311 124.832 36.4653 125.056 36.5101C125.235 36.5548 125.414 36.6443 125.593 36.689C125.772 36.7338 125.951 36.8233 126.085 36.9127C126.219 37.0022 126.354 37.1365 126.443 37.2707C126.533 37.4049 126.577 37.5839 126.577 37.8076C126.622 38.1655 126.577 38.2998 126.533 38.434ZM132.797 32.8859H131.812L133.915 37.1365V39.6868H134.721V37.1365L136.824 32.8859H135.839L134.273 36.2863L132.797 32.8859ZM145.056 38.434C144.967 38.5682 144.877 38.7025 144.743 38.7919C144.609 38.8814 144.475 38.9262 144.296 38.9709C144.117 39.0157 143.982 39.0157 143.803 39.0157C143.58 39.0157 143.401 38.9709 143.222 38.9262C143.043 38.8814 142.864 38.7919 142.73 38.6577C142.595 38.5235 142.461 38.3893 142.372 38.255C142.282 38.0761 142.237 37.8971 142.193 37.6734H141.298C141.298 37.9866 141.387 38.2998 141.521 38.5235C141.656 38.7919 141.835 38.9709 142.058 39.1499C142.282 39.3289 142.551 39.4631 142.819 39.5526C143.087 39.6421 143.401 39.6868 143.714 39.6868C143.982 39.6868 144.251 39.6421 144.519 39.5526C144.788 39.4631 145.011 39.3736 145.235 39.1946C145.459 39.0604 145.638 38.8367 145.772 38.613C145.906 38.3893 145.996 38.1208 145.996 37.8076C145.996 37.5839 145.951 37.4049 145.906 37.2707C145.862 37.0917 145.772 36.9575 145.683 36.8233C145.593 36.689 145.459 36.5548 145.325 36.4653C145.19 36.3758 145.056 36.2416 144.877 36.1521C144.698 36.0626 144.564 35.9732 144.385 35.9284C144.206 35.8389 144.027 35.7942 143.893 35.7494C143.759 35.7047 143.58 35.66 143.401 35.5705C143.222 35.5257 143.087 35.4362 142.909 35.3468C142.774 35.2573 142.64 35.123 142.551 34.9888C142.461 34.8546 142.416 34.6756 142.416 34.4966C142.416 34.3177 142.461 34.1387 142.506 34.0045C142.595 33.8702 142.685 33.736 142.819 33.6465C142.953 33.557 143.087 33.4676 143.222 33.4228C143.401 33.3781 143.535 33.3333 143.714 33.3333C143.938 33.3333 144.117 33.3781 144.251 33.4228C144.43 33.4676 144.564 33.557 144.653 33.6913C144.788 33.8255 144.877 33.9597 144.922 34.094C145.011 34.2729 145.056 34.4519 145.056 34.6309H145.951C145.951 34.3177 145.862 34.0492 145.772 33.7808C145.638 33.5123 145.459 33.3333 145.28 33.1544C145.056 32.9754 144.832 32.8412 144.564 32.7517C144.296 32.6622 144.027 32.6174 143.714 32.6174C143.445 32.6174 143.177 32.6622 142.909 32.7517C142.64 32.8412 142.416 32.9754 142.193 33.1096C141.969 33.2886 141.835 33.4676 141.7 33.6913C141.566 33.915 141.521 34.1834 141.521 34.4966C141.521 34.8098 141.566 35.0336 141.7 35.2573C141.835 35.481 142.014 35.66 142.193 35.8389C142.416 36.0179 142.64 36.1521 142.864 36.2416C143.132 36.3311 143.356 36.4653 143.58 36.5101C143.759 36.5548 143.938 36.6443 144.117 36.689C144.296 36.7338 144.475 36.8233 144.609 36.9127C144.743 37.0022 144.877 37.1365 144.967 37.2707C145.056 37.4049 145.101 37.5839 145.101 37.8076C145.146 38.1655 145.101 38.2998 145.056 38.434ZM155.436 32.8859H150.381V33.6018H152.483V39.6868H153.334V33.6018H155.436V32.8859ZM163.893 35.7942H161.074V33.6018H164.34V32.8859H160.179V39.6868H164.34V38.9262H161.029V36.5101H163.848V35.7942H163.893ZM169.262 32.8859V39.6868H170.112V36.9575L170.023 34.2282L171.186 37.8076H171.678L172.931 34.1387L172.841 36.9575V39.6868H173.692V32.8859H172.618L171.41 36.2863L170.291 32.8859H169.262ZM182.103 38.434C182.014 38.5682 181.924 38.7025 181.79 38.7919C181.656 38.8814 181.521 38.9262 181.343 38.9709C181.164 39.0157 181.029 39.0157 180.85 39.0157C180.627 39.0157 180.448 38.9709 180.269 38.9262C180.09 38.8814 179.911 38.7919 179.777 38.6577C179.642 38.5235 179.508 38.3893 179.419 38.255C179.329 38.0761 179.284 37.8971 179.24 37.6734H178.345C178.345 37.9866 178.434 38.2998 178.568 38.5235C178.703 38.7919 178.882 38.9709 179.105 39.1499C179.329 39.3289 179.598 39.4631 179.866 39.5526C180.134 39.6421 180.448 39.6868 180.761 39.6868C181.029 39.6868 181.298 39.6421 181.566 39.5526C181.835 39.4631 182.058 39.3736 182.282 39.1946C182.506 39.0604 182.685 38.8367 182.819 38.613C182.953 38.3893 183.043 38.1208 183.043 37.8076C183.043 37.5839 182.998 37.4049 182.953 37.2707C182.909 37.0917 182.819 36.9575 182.73 36.8233C182.64 36.689 182.506 36.5548 182.372 36.4653C182.237 36.3758 182.103 36.2416 181.924 36.1521C181.745 36.0626 181.611 35.9732 181.432 35.9284C181.253 35.8389 181.074 35.7942 180.94 35.7494C180.806 35.7047 180.627 35.66 180.448 35.5705C180.269 35.5257 180.134 35.4362 179.955 35.3468C179.821 35.2573 179.687 35.123 179.598 34.9888C179.508 34.8546 179.463 34.6756 179.463 34.4966C179.463 34.3177 179.508 34.1387 179.553 34.0045C179.642 33.8702 179.732 33.736 179.866 33.6465C180 33.557 180.134 33.4676 180.269 33.4228C180.448 33.3781 180.582 33.3333 180.761 33.3333C180.985 33.3333 181.164 33.3781 181.298 33.4228C181.477 33.4676 181.611 33.557 181.7 33.6913C181.835 33.8255 181.924 33.9597 181.969 34.094C182.058 34.2729 182.103 34.4519 182.103 34.6309H182.998C182.998 34.3177 182.909 34.0492 182.819 33.7808C182.685 33.5123 182.506 33.3333 182.327 33.1544C182.103 32.9754 181.879 32.8412 181.611 32.7517C181.343 32.6622 181.074 32.6174 180.761 32.6174C180.492 32.6174 180.224 32.6622 179.955 32.7517C179.687 32.8412 179.463 32.9754 179.24 33.1096C179.016 33.2886 178.882 33.4676 178.747 33.6913C178.613 33.915 178.568 34.1834 178.568 34.4966C178.568 34.8098 178.613 35.0336 178.747 35.2573C178.882 35.481 179.061 35.66 179.24 35.8389C179.463 36.0179 179.687 36.1521 179.911 36.2416C180.179 36.3311 180.403 36.4653 180.627 36.5101C180.806 36.5548 180.985 36.6443 181.164 36.689C181.343 36.7338 181.521 36.8233 181.656 36.9127C181.79 37.0022 181.924 37.1365 182.014 37.2707C182.103 37.4049 182.148 37.5839 182.148 37.8076C182.237 38.1655 182.193 38.2998 182.103 38.434Z" fill="#535B67"/>
<path d="M0.358349 21.8344C1.79012 22.4608 3.7588 22.774 5.36953 22.774C9.75432 22.774 12.7073 20.3132 12.7073 16.1969C12.7073 12.9306 10.8729 11.3199 8.0541 9.70917L7.06976 9.17226C5.23531 8.09843 4.42994 7.56152 4.42994 6.04027C4.42994 4.02684 6.1749 3.26622 7.60667 3.26622C9.08318 3.26622 10.5149 3.75839 11.6335 4.38479L11.8125 0.894854C10.5149 0.447427 9.17267 0.17897 7.24873 0.17897C3.93777 0.17897 0.224121 2.19239 0.224121 6.57718C0.224121 9.217 1.47692 10.783 4.11674 12.2148L5.23531 12.7964C6.84604 13.6913 8.50153 14.7204 8.50153 16.6443C8.50153 18.255 7.56193 19.7763 5.10108 19.7763C4.02725 19.7763 2.14806 19.4183 0.582063 18.3445L0.358349 21.8344ZM18.5239 22.4161L20.0004 17.047H27.204L28.6805 22.4161H32.8416L25.9512 0.492169H21.4322L14.4971 22.4161H18.5239ZM23.5798 3.93736L26.4881 14.1387H20.7163L23.5798 3.93736ZM46.6223 22.4161V19.1499H39.7319V0.492169H35.7051V22.4161H46.6223ZM53.1548 22.4161L54.6313 17.047H61.8349L63.3114 22.4161H67.4724L60.5821 0.492169H56.063L49.1279 22.4161H53.1548ZM58.166 3.93736L61.0742 14.1387H55.3472L58.166 3.93736ZM73.7812 22.4161V4.07159L78.8371 22.4161H81.8349L86.8908 4.07159V22.4161H90.7834V0.492169H84.9221L80.4926 16.868L76.1973 0.492169H70.336V22.4161H73.7812ZM97.6738 22.4161L99.1503 17.047H106.354L107.83 22.4161H111.991L105.101 0.492169H100.582L93.6469 22.4161H97.6738ZM102.685 3.93736L105.593 14.1387H99.8662L102.685 3.93736ZM118.3 22.4161V5.19016L125.012 22.4161H130.246V0.492169H126.712V17.7629L120.09 0.492169H114.855V22.4161H118.3ZM138.569 3.6689H139.866C144.609 3.6689 146.041 6.97987 146.041 11.2752C146.041 15.3915 144.609 19.2841 140.09 19.2841H138.569V3.6689ZM140.179 22.4161C146.757 22.4161 150.202 17.5391 150.202 11.2304C150.202 4.47427 146.801 0.492169 139.777 0.492169H134.542V22.4161H140.179ZM165.056 22.4161V19.2841H157.316V12.6622H164.251V9.5302H157.316V3.6689H164.698V0.536912H153.334V22.4608H165.056V22.4161ZM172.797 22.4161V13.1096H174.452C175.795 13.1096 176.376 13.915 176.868 15.5705L178.971 22.4161H183.222L180.493 14.4072C179.866 12.6174 179.285 11.8568 177.853 11.4989C180.627 10.962 182.193 9.03803 182.193 6.1745C182.193 2.50559 179.285 0.536912 175.795 0.536912H168.815V22.4608H172.797V22.4161ZM172.752 3.57942H174.631C176.734 3.57942 178.076 4.51901 178.076 6.71141C178.076 8.81432 176.913 10.0224 174.676 10.0224H172.752V3.57942Z" fill="#00975F"/>
</g>
<defs>
<clipPath id="clip0_56_111">
<rect width="183.445" height="40" fill="white"/>
</clipPath>
</defs>
</svg>
